<?xml version="1.0" standalone="no"?>
<!DOCTYPE svg PUBLIC "-//W3C//DTD SVG 20010904//EN"
 "http://www.w3.org/TR/2001/REC-SVG-20010904/DTD/svg10.dtd">
<svg version="1.0" xmlns="http://www.w3.org/2000/svg"
 width="100px" height="100px" viewBox="0 0 369 371"
 preserveAspectRatio="xMidYMid meet">
<metadata>
Created by potrace 1.8, written by Peter Selinger 2001-2007
</metadata>
<g transform="translate(0,371) scale(0.080000,-0.080000)"
fill="#000000" stroke="none">
<path d="M1 3805 c1 -610 4 -825 13 -825 7 0 8 -3 1 -8 -13 -9 -15 -112 -3
-112 5 0 6 5 3 10 -6 9 8 14 28 11 5 -1 7 4 5 11 -3 7 -10 13 -16 13 -5 0 -14
3 -18 7 -3 4 3 5 16 3 16 -3 20 0 16 10 -3 9 0 12 9 9 8 -3 12 -15 9 -29 -3
-19 0 -23 15 -22 11 0 17 5 15 9 -3 5 -11 6 -17 2 -7 -3 -3 2 7 10 11 9 15 16
8 16 -6 0 -19 11 -28 25 -13 20 -14 28 -4 40 14 17 0 21 -17 4 -8 -8 -13 -8
-18 0 -3 6 -1 10 6 9 6 -2 14 3 17 11 2 8 0 11 -5 8 -5 -3 -9 3 -9 14 0 10 3
15 6 11 3 -4 16 -20 30 -36 14 -16 18 -25 10 -21 -13 8 -13 7 -1 -8 9 -11 10
-17 2 -17 -6 0 -11 -5 -11 -10 0 -6 8 -5 20 2 11 7 18 18 16 25 -3 7 -1 15 5
19 6 3 8 12 5 20 -3 7 -1 16 4 19 6 4 5 14 -2 25 -15 23 -32 15 -18 -9 6 -12
5 -22 -3 -31 -9 -10 -9 -11 0 -6 13 7 18 -6 6 -17 -12 -12 -32 27 -21 41 6 7
8 16 4 19 -4 4 -11 1 -16 -7 -8 -12 -10 -12 -16 3 -3 9 -9 15 -13 12 -4 -2 -8
2 -8 10 0 20 7 19 22 -2 11 -15 15 -14 43 16 18 20 32 29 36 22 7 -10 1 -15
-16 -12 -5 0 -8 -4 -8 -9 0 -6 5 -10 11 -10 5 0 7 -4 4 -10 -3 -5 -1 -10 4
-10 6 0 12 5 12 10 3 20 4 25 12 38 8 11 2 16 -15 13 -10 -1 -10 13 -1 22 3 4
12 2 19 -4 10 -8 11 -6 1 15 -9 19 -14 22 -20 10 -4 -8 -13 -14 -18 -14 -6 0
-3 7 5 16 9 8 16 21 16 27 1 7 8 0 16 -15 8 -16 17 -28 20 -28 3 0 2 5 -1 10
-4 6 -2 17 4 24 9 10 5 16 -19 26 -40 17 -38 38 3 31 5 -1 7 4 5 11 -6 16 -30
18 -40 3 -5 -6 -8 -5 -8 4 0 11 -3 11 -17 0 -16 -13 -17 -12 -4 3 7 10 17 15
22 12 5 -3 9 -1 9 4 0 6 -7 12 -15 16 -8 3 -15 11 -15 17 0 7 11 0 24 -14 21
-22 26 -24 36 -12 10 12 9 15 -3 15 -9 0 -19 4 -22 10 -4 7 3 7 20 0 35 -13
40 -13 26 3 -13 16 -5 27 21 27 11 0 17 4 14 8 -7 11 22 52 35 52 6 0 9 -6 6
-12 -2 -7 -10 -12 -16 -11 -6 2 -11 -2 -11 -7 0 -21 30 -9 36 15 3 14 11 22
17 18 5 -3 8 -2 5 3 -9 14 11 56 22 49 16 -10 11 1 -7 16 -15 12 -16 12 -8 -1
8 -13 5 -13 -15 1 -13 9 -26 22 -28 30 -2 8 3 6 12 -5 9 -11 19 -17 22 -13 4
4 2 12 -4 20 -8 9 -8 17 0 27 8 13 9 13 5 0 -3 -9 2 -25 10 -35 13 -18 15 -18
26 -4 7 9 15 16 19 15 3 -1 10 3 15 7 4 5 4 8 -2 7 -21 -5 -25 0 -13 14 7 8
16 12 20 10 4 -2 10 1 14 7 4 7 3 9 -4 5 -6 -3 -13 -2 -16 3 -7 11 22 23 36
15 6 -4 5 2 -1 14 -7 14 -17 19 -27 15 -11 -4 -12 -8 -4 -13 8 -5 7 -9 -5 -13
-11 -5 -14 -3 -9 5 5 8 1 9 -12 5 -18 -7 -18 -6 -1 7 11 8 14 17 8 20 -5 4
-12 2 -16 -4 -3 -5 -11 -10 -18 -10 -6 0 -2 6 9 14 12 9 23 11 28 5 17 -16 29
-10 15 8 -10 11 -10 14 -1 9 6 -4 12 -3 12 2 0 16 -13 22 -27 11 -9 -9 -13 -8
-13 0 0 6 4 11 8 11 4 0 8 10 9 23 l2 22 -19 -23 c-17 -21 -19 -21 -17 -3 0
11 6 19 12 18 5 -1 9 7 8 18 -1 17 1 17 18 -5 10 -14 19 -21 19 -16 0 5 6 3
14 -3 17 -14 15 -33 -3 -55 -7 -9 -10 -16 -5 -17 5 0 17 -2 27 -4 9 -2 15 1
11 6 -3 5 -10 6 -16 3 -7 -5 -8 -2 -4 5 5 7 15 10 23 6 13 -4 14 -3 4 9 -7 8
-10 19 -7 25 4 5 -1 17 -10 25 -8 9 -12 16 -7 16 17 0 30 -16 27 -32 -1 -10 3
-21 8 -25 6 -3 8 -1 4 5 -3 5 0 13 6 15 10 4 10 6 0 6 -7 1 -10 6 -7 11 5 8
12 7 23 -2 12 -10 14 -10 8 0 -4 7 -2 12 4 12 6 0 9 4 6 9 -6 10 23 26 39 22
6 -1 4 3 -2 10 -15 15 -17 33 -4 25 5 -4 7 4 4 15 -6 21 -7 21 -20 -5 -8 -15
-18 -24 -23 -21 -5 3 -7 -4 -5 -15 2 -11 -1 -20 -6 -20 -6 0 -8 -4 -5 -9 7
-11 -13 -9 -32 2 -17 11 -5 27 20 27 12 0 18 3 15 6 -10 10 13 45 25 38 6 -4
9 -1 6 7 -3 8 -10 14 -16 14 -7 0 -12 3 -12 8 0 4 0 10 0 14 0 3 9 -2 20 -12
22 -20 26 -14 10 15 -8 15 -7 18 3 14 7 -2 22 4 32 16 10 11 24 20 31 20 7 0
16 5 20 12 5 8 2 9 -10 5 -14 -6 -15 -3 -6 13 6 11 15 20 20 20 15 0 23 -21
12 -32 -6 -6 -8 -17 -5 -25 5 -12 1 -14 -18 -8 -16 4 -20 3 -10 -3 11 -8 11
-10 0 -15 -10 -4 -9 -6 3 -6 9 -1 20 4 23 9 4 6 10 8 14 6 4 -3 8 1 8 9 0 8
-5 15 -10 15 -12 0 0 14 14 16 5 1 14 2 19 3 6 0 20 17 31 36 12 19 25 33 29
30 5 -3 7 3 6 12 -2 9 -9 19 -16 21 -9 3 -11 -1 -7 -12 5 -11 3 -15 -5 -10 -7
5 -8 3 -3 -6 6 -9 4 -11 -5 -5 -8 5 -11 4 -7 -3 9 -13 -2 -44 -13 -37 -5 3
-14 -3 -20 -12 -9 -15 -10 -15 -4 6 3 13 2 21 -3 18 -5 -3 -15 -1 -23 5 -12 8
-12 9 2 4 20 -6 34 10 15 17 -19 7 -29 -1 -66 -55 -17 -27 -36 -48 -41 -48 -5
0 2 12 15 26 14 15 22 30 20 34 -3 4 2 11 11 14 10 4 14 13 10 28 -3 13 -3 17
0 11 4 -9 11 -10 23 -4 9 5 23 6 31 1 17 -10 42 -1 33 13 -3 5 -2 7 4 4 13 -8
36 41 27 55 -5 7 -2 8 5 4 7 -5 10 -14 7 -22 -3 -7 4 -18 14 -24 11 -6 20 -7
20 -3 0 4 4 2 9 -5 7 -11 9 -10 14 3 5 10 3 14 -4 9 -7 -4 -10 -1 -7 7 3 8 12
13 20 11 9 -1 18 7 21 19 3 11 10 18 16 15 5 -4 12 -2 16 4 4 6 11 7 17 4 6
-4 8 -2 4 4 -3 6 -2 13 3 16 5 4 8 14 6 24 -1 9 2 22 7 29 11 14 -14 58 -26
46 -4 -4 -4 1 0 11 7 18 7 18 18 0 6 -11 22 -20 36 -21 24 -3 24 -2 6 12 -31
24 -8 17 27 -7 20 -14 32 -18 34 -11 3 7 12 9 21 6 10 -3 13 -1 7 4 -14 11
-19 47 -6 38 6 -3 11 -1 11 4 0 6 -4 11 -8 11 -5 0 -17 7 -28 15 -10 8 -14 15
-9 14 23 -3 29 2 15 12 -12 9 -12 10 4 5 14 -5 17 -3 12 11 -6 15 -5 16 5 6
10 -10 10 -16 1 -25 -18 -18 -15 -28 9 -28 11 0 18 -4 15 -8 -7 -12 26 -11 41
0 7 5 18 7 25 3 7 -4 4 1 -6 9 -21 17 -23 16 33 20 11 0 23 5 28 10 5 5 2 6
-6 1 -9 -5 -12 -3 -9 6 3 8 14 13 26 13 12 -1 19 2 16 7 -4 7 32 33 49 34 4 0
7 3 7 8 0 4 -2 6 -3 5 -10 -8 -35 26 -30 40 4 15 3 15 -6 2 -6 -8 -15 -16 -21
-16 -24 -3 -24 -6 0 -16 15 -6 20 -12 12 -15 -6 -3 -9 -10 -6 -15 4 -6 2 -8
-4 -4 -6 3 -13 2 -17 -4 -4 -6 -11 -7 -17 -4 -7 5 -8 2 -3 -7 7 -12 6 -12 -7
-1 -13 10 -17 10 -21 -2 -4 -11 -1 -13 11 -10 14 5 15 4 2 -5 -8 -6 -24 -8
-35 -5 -16 4 -17 3 -5 -5 16 -12 10 -14 -33 -14 -10 0 -16 -5 -14 -11 2 -6 13
-9 23 -8 15 3 16 1 7 -8 -9 -10 -16 -9 -31 2 -17 12 -18 16 -7 32 8 10 19 15
25 11 9 -5 10 -1 5 14 -4 13 -2 21 5 21 6 0 8 -4 5 -10 -3 -6 4 -10 16 -10 21
0 21 1 6 18 -10 10 -17 22 -17 27 0 5 6 0 14 -10 12 -16 16 -17 30 -6 9 7 13
18 9 25 -3 6 3 3 14 -7 11 -9 23 -14 26 -10 4 3 -2 12 -13 20 -21 15 -26 38
-11 47 5 4 7 -4 3 -16 -5 -20 -3 -21 10 -11 8 7 19 9 23 5 5 -4 5 1 2 11 -4
10 -3 16 2 12 5 -3 12 -1 16 5 3 5 11 10 16 10 6 0 7 -6 3 -12 -5 -9 -3 -9 9
1 9 7 14 17 11 22 -3 5 0 9 5 9 6 0 11 -4 11 -9 0 -5 11 -8 25 -8 13 0 23 5
22 11 -1 6 9 11 23 11 31 0 67 20 52 29 -6 3 -13 2 -17 -4 -3 -5 -11 -10 -18
-10 -6 0 -3 6 8 13 10 8 33 13 52 11 26 -2 32 1 24 10 -7 8 -6 17 1 26 8 12 9
12 4 -2 -3 -10 -1 -20 4 -23 6 -4 10 2 11 12 0 15 2 15 7 3 7 -16 25 -20 38
-7 4 4 -1 7 -12 7 -15 0 -16 2 -5 9 10 7 18 5 26 -6 10 -13 13 -13 26 3 12 16
12 17 -3 11 -10 -3 -18 -2 -18 3 0 6 8 10 18 10 14 0 12 4 -8 21 l-25 21 27
-16 c34 -20 44 -20 28 -1 -9 11 -9 15 -1 15 7 0 9 4 6 10 -3 6 1 7 10 3 12 -4
13 -8 5 -13 -7 -4 -9 -13 -6 -19 4 -6 1 -14 -8 -17 -8 -3 -13 -14 -11 -25 3
-12 0 -17 -7 -13 -7 4 -8 3 -4 -4 4 -7 -1 -10 -14 -7 -13 3 -18 0 -14 -7 5 -7
2 -8 -6 -3 -8 5 -11 4 -6 -3 4 -7 -1 -10 -14 -7 -14 3 -18 0 -13 -8 5 -8 2 -8
-9 1 -12 10 -17 10 -20 1 -2 -7 -12 -13 -22 -15 -14 -2 -15 0 -5 12 8 10 8 14
0 14 -10 0 -15 -13 -12 -32 1 -8 -15 -12 -31 -9 -5 0 -8 -4 -8 -10 0 -5 -6 -7
-12 -3 -7 4 -6 -1 3 -11 14 -15 20 -15 40 -4 13 7 28 12 32 11 5 -1 6 2 3 7
-3 5 1 11 9 15 8 3 15 0 15 -7 0 -6 7 -1 16 11 12 18 19 20 34 12 16 -9 18 -8
13 6 -4 11 -3 15 5 10 6 -3 13 -2 17 4 4 6 11 7 17 4 6 -4 8 -2 4 4 -3 6 -2
13 3 17 6 3 7 13 4 22 -4 11 -3 14 6 9 7 -4 10 -3 9 4 -2 7 6 14 17 16 27 5
72 -6 58 -14 -7 -5 -6 -11 3 -20 8 -7 14 -9 14 -3 0 5 10 7 23 5 20 -4 21 -4
2 5 -11 5 -15 10 -10 11 30 6 42 4 60 -10 20 -15 20 -15 1 7 -10 13 -23 20
-28 17 -5 -3 -15 -1 -23 6 -10 8 -15 8 -20 0 -5 -8 -12 -5 -22 7 -8 10 -11 12
-8 5 6 -11 3 -12 -12 -3 -14 7 -23 7 -31 -1 -9 -9 -12 -9 -12 0 0 7 5 12 11
12 5 0 8 4 5 8 -3 5 1 9 9 9 8 0 12 -4 9 -9 -3 -4 0 -8 5 -8 6 0 11 4 11 8 0
5 14 9 30 10 27 1 35 -7 31 -31 -1 -5 4 -7 11 -4 7 2 11 11 9 18 -2 8 -3 22
-3 32 1 20 -14 23 -21 5 -4 -10 -6 -10 -6 0 -1 6 -6 12 -12 12 -5 0 -7 -4 -4
-10 3 -5 2 -10 -4 -10 -5 0 -12 6 -14 13 -4 9 -8 8 -16 -3 -6 -8 -11 -10 -11
-4 0 9 -204 12 -790 13 l-791 2 2 -826z m912 418 c-6 -16 -5 -17 13 -3 10 8
16 10 12 6 -4 -5 -3 -15 2 -21 7 -9 6 -16 -3 -24 -11 -8 -18 -7 -31 8 -16 18
-13 51 5 51 4 0 5 -8 2 -17z m-97 -61 c23 -16 4 -94 -24 -98 -20 -2 -41 -17
-36 -25 3 -5 2 -9 -3 -8 -16 4 -43 -13 -36 -24 3 -6 1 -7 -6 -3 -6 4 -9 12 -5
17 3 5 0 16 -6 24 -9 11 -9 15 -1 15 6 0 11 -4 11 -8 0 -5 7 -9 15 -9 21 0 19
12 -7 32 -22 16 -22 16 4 1 32 -19 48 -20 48 -5 0 5 -4 8 -9 5 -5 -3 -14 1
-21 9 -9 10 -9 15 -1 15 6 0 11 -5 11 -11 0 -5 4 -8 10 -4 5 3 7 13 4 23 -5
14 -4 15 5 2 9 -13 13 -13 28 3 17 18 17 18 -2 15 -12 -2 -20 3 -21 12 0 8 1
10 3 4 2 -7 13 -9 25 -6 20 5 20 6 3 19 -19 13 -9 19 11 5z m-323 -155 c-4 -7
1 -6 11 2 15 13 19 13 27 0 12 -18 11 -29 -1 -30 -5 -1 -16 -2 -22 -3 -17 -2
-41 31 -33 44 4 6 11 8 16 4 5 -3 6 -11 2 -17z m13 -112 c-3 -9 -10 -14 -15
-11 -9 6 -26 -22 -22 -37 1 -5 -3 -6 -9 -2 -8 5 -8 11 0 20 7 8 9 19 6 24 -4
6 2 8 15 6 17 -4 20 0 16 17 -4 15 -3 18 5 10 6 -6 8 -18 4 -27z m-171 -331
c14 -6 14 -8 -2 -26 -10 -11 -17 -22 -15 -24 1 -2 2 -10 2 -16 0 -10 -2 -10
-8 0 -5 7 -7 23 -6 35 1 12 3 25 3 30 1 9 5 9 26 1z m-75 -99 c7 -8 17 -12 24
-8 8 5 8 3 -1 -8 -6 -8 -12 -17 -12 -21 -1 -5 -4 -8 -8 -9 -5 -1 -16 -5 -26
-10 -13 -7 -19 -6 -23 6 -3 8 -10 12 -15 9 -5 -3 -8 0 -7 8 2 7 -3 12 -10 10
-8 -1 -11 2 -7 8 5 8 14 5 28 -7 20 -17 20 -17 14 0 -4 11 -3 16 4 12 5 -4 7
-15 4 -26 -5 -14 -3 -17 9 -13 9 3 13 10 10 15 -3 5 -2 9 3 8 19 -3 23 2 11
15 -7 8 -16 12 -20 9 -5 -2 -8 1 -8 6 0 16 16 13 30 -4z"/>
<path d="M1688 4611 c4 -10 1 -12 -7 -6 -10 6 -11 3 -2 -14 7 -11 8 -21 4 -21
-4 0 2 -6 12 -14 21 -15 40 -12 29 5 -3 5 -10 6 -16 3 -8 -5 -9 -1 -5 10 4 10
7 20 7 22 0 2 5 4 10 4 6 0 9 -3 9 -7 -3 -20 2 -24 16 -13 8 7 15 9 15 5 0 -4
6 -3 13 2 19 16 47 23 47 13 0 -5 -8 -10 -17 -12 -9 -2 -17 -13 -18 -25 -1
-12 2 -20 7 -17 5 4 7 13 4 21 -5 12 -1 14 14 10 11 -3 18 -2 16 2 -3 4 0 13
5 21 7 12 11 13 18 2 6 -11 10 -10 15 4 6 16 8 15 29 -2 20 -18 21 -18 7 -1
-12 17 -12 18 6 15 10 -1 24 -10 31 -18 11 -13 12 -13 13 0 0 11 4 10 17 -5
11 -14 14 -15 10 -3 -8 24 4 30 20 10 12 -16 13 -15 6 3 -5 16 -4 18 8 9 19
-15 54 -15 39 0 -6 6 -78 11 -189 11 -153 1 -178 -1 -173 -14z m90 -9 c-6 -7
-13 -10 -16 -7 -3 3 -12 -1 -20 -8 -11 -8 -14 -8 -9 0 12 20 -15 27 -30 8 -7
-11 -13 -14 -13 -9 0 20 22 31 60 30 30 -1 36 -4 28 -14z"/>
<path d="M2475 4619 c-3 -3 8 -5 23 -4 15 1 30 -3 34 -9 5 -7 8 -6 8 4 0 13 2
13 9 1 8 -13 12 -13 27 0 15 13 16 12 11 -11 -4 -14 -4 -19 -1 -12 3 6 12 12
20 12 9 0 12 -5 8 -12 -5 -7 -3 -8 7 -2 25 15 44 14 58 -4 13 -16 13 -16 8 1
-4 9 -2 17 4 17 6 0 7 5 3 12 -4 7 -3 8 5 4 6 -4 9 -11 7 -15 -3 -4 4 -13 16
-20 16 -10 18 -10 12 0 -5 9 -2 10 12 5 10 -4 23 -8 29 -9 5 -1 18 -11 28 -22
10 -11 16 -14 12 -7 -3 6 -2 12 2 12 5 0 15 -6 22 -12 8 -7 6 0 -4 15 -14 21
-15 31 -6 40 14 14 14 27 0 27 -5 0 -7 -4 -4 -10 3 -5 1 -10 -4 -10 -6 0 -11
4 -11 9 0 5 -11 9 -25 9 -13 0 -22 -4 -20 -8 3 -5 -1 -11 -7 -14 -7 -3 -4 -4
7 -3 11 1 23 6 26 10 3 4 11 -4 17 -17 9 -21 9 -24 -3 -19 -8 3 -13 8 -10 13
2 4 -8 7 -23 6 -19 -1 -26 4 -25 14 2 13 -18 15 -133 15 -75 0 -137 -2 -139
-6z"/>
<path d="M2841 4608 c-12 -20 -11 -24 10 -39 13 -10 32 -25 41 -33 11 -10 20
-12 24 -5 3 6 12 3 21 -8 13 -17 13 -16 3 5 -8 16 -8 22 0 22 6 0 9 4 6 8 -2
4 -1 14 3 21 6 9 16 6 38 -13 31 -26 58 -37 35 -14 -17 17 -15 24 8 25 11 1
20 -3 20 -8 0 -6 -4 -7 -10 -4 -5 3 -10 2 -10 -3 0 -6 7 -13 16 -16 22 -8 26
-8 19 4 -3 6 -1 10 5 10 7 0 10 -7 7 -15 -4 -8 -2 -17 3 -20 6 -4 10 0 10 7 0
10 3 9 9 -2 14 -21 2 -33 -17 -18 -9 7 -13 8 -9 2 3 -6 0 -11 -8 -11 -10 0
-12 4 -5 12 8 9 6 14 -6 19 -23 9 -26 8 -17 -6 4 -7 8 -17 8 -23 0 -5 9 -10
20 -10 11 1 23 -4 27 -10 5 -6 8 -6 8 3 0 6 7 12 15 12 18 0 19 12 3 28 -17
17 2 35 22 21 13 -9 12 -10 -2 -5 -23 7 -22 -3 1 -33 l18 -23 -1 22 c-1 18 5
24 29 26 24 3 26 2 10 -5 -11 -5 -23 -7 -27 -4 -5 2 -8 -3 -8 -12 0 -9 4 -14
9 -10 6 3 14 -3 20 -12 5 -10 13 -15 17 -11 4 4 2 14 -4 21 -9 10 -8 14 3 14
8 0 12 -3 10 -7 -2 -4 2 -16 10 -26 13 -18 14 -18 20 -1 4 9 12 17 18 17 7 0
7 -4 -1 -12 -19 -19 -14 -33 6 -15 10 10 23 17 28 17 4 0 -3 -8 -16 -17 -14
-10 -29 -16 -35 -14 -5 1 -19 5 -30 7 -11 2 -26 11 -32 21 -9 11 -13 12 -13 4
0 -8 -6 -11 -16 -7 -10 4 -13 2 -8 -7 5 -9 4 -9 -7 1 -17 15 -26 15 -32 -1 -3
-9 4 -13 27 -12 39 1 52 -5 35 -16 -10 -6 -10 -9 -2 -9 6 0 15 5 18 10 3 6 11
10 17 10 7 0 6 -5 -1 -14 -10 -11 -9 -14 3 -12 9 1 19 5 22 9 12 12 26 8 17
-5 -14 -23 -11 -35 8 -34 11 1 19 5 18 10 -1 9 20 26 34 26 4 0 7 -5 7 -11 0
-5 -4 -7 -10 -4 -5 3 -10 1 -10 -4 0 -13 10 -14 28 -2 17 10 15 23 -4 34 -17
10 -57 -20 -48 -34 3 -5 1 -9 -5 -9 -5 0 -12 4 -15 9 -7 11 72 67 81 57 3 -3
0 -6 -8 -7 -8 0 -3 -5 11 -11 14 -6 28 -11 31 -10 3 0 6 -4 7 -11 0 -7 3 -21
5 -32 2 -11 0 -28 -5 -37 -7 -14 -5 -16 8 -11 11 4 15 3 10 -5 -4 -7 1 -10 14
-7 13 2 24 -4 31 -17 7 -13 14 -17 18 -10 5 8 12 5 23 -7 9 -11 13 -23 10 -28
-4 -4 3 1 16 12 19 15 22 16 17 3 -5 -14 -1 -16 21 -14 16 2 30 9 32 16 3 7 0
10 -7 6 -7 -5 -9 -1 -5 11 4 13 0 11 -16 -7 -12 -14 -19 -19 -15 -11 10 18
-16 33 -32 19 -10 -8 -12 -7 -7 6 5 14 2 16 -20 12 -17 -3 -24 -1 -20 6 5 7 2
8 -6 3 -9 -5 -11 -4 -6 4 6 9 11 9 22 0 15 -12 19 -1 6 16 -8 12 -42 16 -42 6
0 -4 -7 -8 -15 -8 -8 0 -11 5 -8 10 3 6 1 7 -5 3 -7 -4 -12 -5 -12 -3 0 8 38
47 45 47 5 0 0 -9 -10 -20 -20 -22 -8 -28 14 -7 11 10 13 10 7 0 -4 -7 -2 -13
3 -13 6 0 11 5 11 10 0 6 5 10 10 10 6 0 9 -3 9 -7 -3 -21 2 -33 13 -27 7 4 8
3 4 -4 -4 -6 4 -16 16 -23 20 -11 21 -10 11 2 -7 8 -8 20 -4 28 6 10 10 8 16
-6 5 -10 7 -25 6 -32 -2 -12 0 -13 12 -2 13 10 18 9 27 -9 9 -16 9 -25 0 -35
-7 -8 -9 -20 -5 -27 4 -7 0 -5 -9 6 -14 18 -15 18 -13 -2 0 -11 4 -20 7 -20
18 2 30 -3 26 -10 -3 -5 0 -9 7 -10 27 -4 72 -10 77 -11 3 -1 -2 -6 -10 -11
-11 -7 -11 -10 -2 -10 7 0 10 -4 7 -10 -3 -5 -1 -10 4 -10 6 0 11 5 11 11 0 5
5 7 10 4 8 -5 7 -12 -2 -23 -12 -15 -11 -16 4 -4 16 13 15 42 -1 42 -4 0 -8 7
-8 15 0 8 4 12 9 9 4 -3 8 -1 8 5 0 5 -9 9 -19 8 -11 0 -18 -4 -16 -7 2 -3 -7
-6 -20 -6 -13 0 -23 4 -22 9 1 5 -5 12 -13 14 -13 4 -13 3 0 -7 13 -10 13 -11
0 -7 -8 2 -14 10 -12 16 1 6 -3 11 -8 11 -6 0 -6 7 2 19 9 15 15 17 29 8 10
-6 16 -14 14 -17 -2 -3 8 -10 21 -17 22 -10 24 -10 19 15 -3 16 -2 21 2 12 9
-16 27 -23 58 -22 15 1 16 -1 6 -8 -8 -4 -19 -6 -25 -4 -6 2 -12 -7 -12 -21
-2 -18 1 -23 10 -16 7 6 18 4 30 -5 17 -12 21 -11 33 4 13 15 13 15 3 -5 -7
-15 -16 -20 -28 -16 -15 6 -15 5 -3 -10 10 -13 17 -15 27 -6 8 6 15 8 16 3 0
-5 2 -13 3 -19 2 -5 4 -14 5 -20 1 -5 5 -1 10 10 8 18 9 18 9 2 1 -10 6 -15
11 -12 6 4 7 11 4 17 -4 6 -2 8 4 4 5 -3 13 0 15 6 3 8 6 8 6 2 1 -6 -8 -19
-19 -29 -11 -10 -20 -24 -20 -31 0 -7 -8 -18 -17 -23 -10 -6 -13 -11 -8 -11 6
-1 20 -3 33 -6 13 -2 21 0 18 5 -4 5 -1 11 6 13 9 3 9 6 0 12 -7 4 -12 2 -12
-3 0 -6 -5 -11 -10 -11 -6 0 -5 8 2 19 7 11 15 18 19 15 4 -2 10 8 14 24 l7
27 11 -25 c5 -14 9 -31 8 -37 -1 -8 5 -10 16 -6 14 5 15 3 6 -7 -14 -15 -36
-3 -29 16 3 7 1 16 -3 19 -14 8 -23 -26 -11 -40 15 -18 2 -45 -18 -39 -14 5
-14 4 1 -6 9 -6 15 -15 12 -21 -4 -5 -1 -9 4 -9 6 0 12 5 12 10 1 6 2 15 3 21
2 19 39 40 50 29 7 -7 6 -14 -2 -22 -17 -17 -15 -28 4 -28 8 0 12 5 9 10 -3 6
-1 10 4 10 14 0 14 -6 1 -30 -7 -13 -7 -21 0 -25 6 -4 8 -15 5 -26 -4 -11 -2
-19 5 -19 6 0 9 4 6 9 -4 5 0 11 6 14 10 4 11 7 1 18 -17 17 -16 26 2 33 10 4
20 -3 27 -19 6 -13 14 -22 18 -20 4 3 7 -11 5 -31 -1 -20 -8 -40 -16 -45 -10
-6 -11 -9 -1 -9 7 0 17 -10 22 -22 8 -21 9 -21 10 -3 0 17 2 17 10 5 5 -8 10
-10 10 -4 0 6 -7 17 -15 24 -14 12 -13 15 4 31 24 22 39 25 21 4 -15 -18 -7
-31 37 -53 l35 -19 -31 0 c-18 0 -27 3 -21 7 8 5 8 9 -2 12 -8 4 -18 -5 -25
-19 -10 -20 -9 -23 2 -13 16 13 28 -1 19 -23 -3 -9 4 -21 16 -30 16 -11 18
-16 8 -21 -7 -3 -2 -3 12 1 22 5 23 4 12 -10 -14 -17 -7 -42 8 -32 5 3 11 -3
13 -12 4 -17 5 -17 6 0 0 9 5 17 11 17 5 0 7 -6 4 -13 -3 -8 2 -20 10 -27 9
-7 13 -17 9 -23 -3 -6 -1 -7 6 -3 6 4 9 12 6 17 -10 15 11 10 24 -5 8 -10 9
-16 1 -21 -6 -3 -7 -12 -3 -18 4 -7 8 -16 9 -22 0 -5 2 -16 2 -23 1 -7 6 -11
11 -7 5 3 12 1 16 -5 3 -5 1 -10 -5 -10 -13 0 14 -31 27 -31 10 0 38 -51 35
-62 -1 -5 2 -6 8 -2 5 3 10 1 10 -4 0 -6 -8 -11 -17 -12 -14 0 -12 -3 5 -10
18 -7 22 -14 18 -31 -3 -13 -3 -18 0 -11 4 10 8 10 19 0 10 -9 10 -15 1 -26
-8 -11 -8 -13 0 -8 7 4 15 0 18 -9 3 -8 2 -12 -3 -9 -5 3 -13 1 -16 -5 -4 -6
-3 -10 2 -9 20 3 34 -2 28 -11 -3 -6 1 -7 9 -4 14 5 14 8 1 21 -9 8 -13 19
-10 24 4 5 1 9 -5 9 -6 0 -9 4 -5 9 3 5 1 12 -5 16 -6 4 -7 11 -4 17 4 7 2 8
-4 4 -7 -4 -12 -2 -12 3 0 6 7 11 16 11 10 0 14 -6 11 -15 -8 -20 5 -26 21 -9
10 10 10 14 1 14 -7 0 -9 3 -6 6 4 4 13 1 22 -6 12 -10 13 -16 4 -26 -6 -8
-16 -11 -21 -7 -6 3 -8 0 -6 -8 3 -8 9 -14 14 -13 5 0 19 -10 31 -23 12 -12
18 -23 14 -23 -15 0 -22 -32 -10 -46 10 -13 43 -8 35 5 -3 4 5 8 17 8 18 2 17
-1 -8 -18 l-30 -19 25 -7 25 -7 -24 -6 c-14 -3 -27 -12 -29 -20 -5 -13 -3 -13
13 0 10 8 16 10 12 3 -4 -6 -1 -13 5 -16 7 -2 9 -8 5 -13 -4 -5 -11 -4 -15 1
-4 6 -16 11 -27 13 -16 2 -17 1 -6 -7 12 -8 13 -12 1 -26 -11 -14 -11 -16 1
-13 8 2 13 -3 11 -9 -1 -7 4 -13 11 -13 8 0 14 7 14 15 0 8 -3 12 -7 10 -4 -2
-7 2 -7 10 0 18 15 9 46 -28 14 -16 31 -35 39 -43 7 -8 9 -14 5 -14 -5 0 -19
14 -32 31 -13 17 -25 28 -28 25 -3 -3 0 -13 7 -21 10 -12 11 -18 1 -28 -10 -9
-11 -8 -6 8 5 15 4 16 -3 6 -6 -8 -12 -9 -16 -3 -3 6 0 12 6 15 7 3 3 4 -9 4
-20 -1 -21 -3 -8 -17 8 -9 12 -19 9 -23 -3 -3 8 -4 25 -2 17 2 31 -1 31 -6 0
-6 5 -7 12 -3 8 5 8 3 2 -7 -11 -17 -13 -59 -3 -59 4 0 12 7 19 15 9 10 9 15
1 15 -6 0 -11 5 -11 10 0 6 7 6 18 -1 17 -11 16 -13 -10 -41 -15 -17 -28 -34
-28 -40 0 -5 -5 -6 -11 -3 -6 4 -5 -1 2 -13 14 -23 43 -19 63 9 7 10 16 16 19
12 4 -3 7 -2 7 4 0 6 -7 16 -15 23 -13 10 -15 9 -15 -8 0 -21 -14 -35 -38 -38
-10 -2 -10 1 -1 12 6 7 15 11 20 8 5 -3 9 3 9 14 0 25 10 34 26 22 9 -8 12 -5
10 14 0 13 -4 22 -7 20 -4 -2 -15 6 -25 19 -17 19 -17 20 -1 8 26 -21 47 1 29
30 -8 12 -9 18 -3 14 7 -3 11 2 11 15 0 14 -4 19 -12 14 -10 -6 -10 -5 -1 7 9
11 12 197 13 747 l0 733 -784 -1 c-772 -2 -784 -2 -781 -21 2 -11 0 -17 -6
-14 -5 4 -7 10 -4 15 10 16 -15 22 -32 8 -12 -9 -15 -9 -9 0 5 8 0 12 -14 12
-14 0 -19 -4 -14 -12 5 -8 0 -7 -11 2 -17 14 -18 13 -12 -5 7 -20 7 -20 -8 0
-14 17 -17 18 -25 5 -7 -10 -10 -11 -10 -2 0 20 -44 13 -59 -10z m93 -15 c4
-4 -3 -15 -16 -25 -20 -16 -20 -17 -3 -12 16 6 18 4 8 -6 -9 -10 -16 -9 -34 4
-21 15 -16 22 14 17 4 0 7 6 7 14 0 16 12 20 24 8z m1050 -221 c3 7 3 2 0 -11
-4 -17 -3 -21 6 -16 9 6 9 3 1 -12 -6 -11 -7 -24 -3 -28 4 -5 2 -5 -5 -1 -7 4
-10 13 -6 21 4 11 1 13 -11 9 -9 -3 -13 -11 -9 -18 3 -6 2 -7 -3 -3 -5 5 -7
10 -4 12 3 2 -4 11 -15 20 -11 9 -14 14 -7 10 6 -3 12 -1 12 5 0 6 5 8 10 5 6
-4 7 -11 4 -17 -4 -7 -2 -8 4 -4 9 5 9 13 1 29 -9 20 -9 21 4 4 11 -14 16 -15
21 -5z m-57 -134 c4 1 8 -4 9 -11 1 -8 -6 -13 -20 -11 -11 1 -25 3 -29 3 -4 1
-3 9 2 20 6 10 9 20 8 22 -1 2 4 -3 11 -11 7 -8 16 -14 19 -12z m255 -340
c-17 -17 -15 -28 5 -21 11 5 9 -1 -6 -16 -19 -19 -25 -21 -32 -10 -14 22 -11
34 14 45 30 16 33 16 19 2z m260 -37 c-5 -14 -3 -14 11 -2 15 12 15 11 1 -18
-13 -26 -19 -30 -30 -20 -10 8 -12 15 -4 23 14 14 13 29 -2 20 -6 -4 -8 -3 -5
3 10 16 36 11 29 -6z m-286 -48 c11 -18 13 -28 5 -36 -20 -20 -12 -31 9 -12
11 10 18 21 15 24 -2 4 5 7 16 7 19 0 19 -1 -2 -17 -17 -12 -19 -18 -8 -22 9
-3 10 -8 4 -14 -5 -4 -11 -16 -13 -25 -2 -13 2 -16 15 -12 15 5 15 4 3 -4 -18
-13 -31 -5 -28 16 2 13 -4 17 -24 16 -29 -1 -35 5 -18 22 10 10 -13 37 -35 42
-9 2 -10 8 -6 31 3 19 51 8 67 -16z m72 -85 c-2 -7 2 -12 8 -11 6 1 11 -8 11
-20 1 -42 3 -48 16 -41 10 6 10 4 0 -7 -17 -17 -17 -34 0 -21 9 8 17 8 27 0
13 -8 12 -9 -2 -5 -9 3 -22 -1 -29 -9 -10 -12 -8 -14 12 -12 14 2 24 -2 24
-10 0 -8 8 -19 17 -26 10 -7 15 -16 11 -19 -3 -4 1 -9 10 -13 9 -3 14 -13 11
-22 -5 -13 -2 -13 10 2 9 11 16 15 16 9 0 -7 -4 -15 -10 -18 -5 -3 -10 -11
-10 -16 0 -5 11 -2 24 6 23 15 25 15 36 -5 6 -11 16 -17 22 -14 7 5 8 2 3 -5
-5 -9 -10 -10 -18 -2 -16 16 -31 13 -18 -3 10 -12 7 -14 -18 -10 -19 3 -31 1
-31 -6 0 -6 -5 -8 -11 -4 -8 5 -8 9 1 14 14 8 0 43 -16 40 -5 -1 -10 4 -12 12
-2 9 0 8 8 -2 9 -13 11 -12 8 5 -2 11 -9 21 -16 21 -6 1 -15 3 -19 4 -5 1 -11
2 -15 1 -5 0 -9 4 -9 9 -1 6 -2 15 -3 21 0 6 -9 17 -20 24 -10 8 -15 18 -12
24 4 5 2 13 -4 16 -8 5 -8 11 0 20 8 10 8 15 0 20 -6 4 -9 13 -6 21 3 8 -1 17
-9 20 -8 4 -12 10 -9 15 8 13 24 11 22 -3z m134 -142 c13 13 17 13 23 2 5 -7
5 -10 0 -6 -4 4 -14 0 -23 -9 -14 -14 -17 -14 -27 1 -7 9 -14 14 -16 11 -3 -2
-6 6 -6 17 -2 20 -1 20 16 -5 16 -24 19 -25 33 -11z"/>
<path d="M4097 3823 c-4 -3 -7 -11 -7 -16 0 -6 3 -7 7 -4 3 4 17 -2 29 -14 26
-24 41 -10 22 21 -16 25 -29 26 -22 3 5 -17 5 -17 -9 -1 -8 10 -17 15 -20 11z"/>
<path d="M2973 4554 c32 -17 33 -20 8 -20 -11 0 -17 4 -15 8 3 4 0 8 -5 8 -16
0 -13 -20 4 -26 8 -4 13 -9 10 -13 -2 -4 2 -8 10 -8 12 0 12 3 2 15 -10 13 -9
14 11 3 12 -7 20 -16 17 -22 -4 -5 -1 -9 4 -9 6 0 11 5 11 10 0 6 0 12 0 15 0
3 -1 4 -2 3 -2 -1 -15 10 -30 25 -15 15 -33 27 -40 27 -7 -1 -1 -8 15 -16z"/>
<path d="M3333 4433 c4 -3 0 -15 -10 -25 -9 -10 -13 -21 -10 -25 4 -3 7 -1 7
6 0 8 5 7 16 -3 19 -20 34 -12 29 14 -5 27 -14 40 -27 40 -6 0 -8 -3 -5 -7z"/>
<path d="M1206 4397 c4 -14 3 -17 -6 -12 -9 6 -9 2 0 -16 18 -34 24 -38 15
-11 -6 21 -5 22 14 11 16 -11 18 -16 8 -29 -10 -13 -10 -13 5 -2 10 8 14 20
11 29 -4 11 -2 14 5 9 8 -5 10 -1 5 11 -6 15 -4 16 9 5 17 -13 32 -3 20 13
-10 14 -32 17 -32 4 0 -5 -6 -7 -12 -3 -7 5 -21 9 -30 9 -14 1 -17 -3 -12 -18z"/>
<path d="M3709 4208 c-6 -16 -5 -68 1 -58 6 9 10 7 15 -9 3 -11 11 -21 16 -21
6 0 7 -5 3 -12 -4 -6 -3 -8 4 -4 6 3 13 2 17 -3 8 -14 32 -3 40 17 3 9 3 13
-1 9 -12 -11 -33 13 -27 30 4 11 3 14 -6 9 -7 -5 -10 -14 -8 -20 3 -7 -1 -13
-8 -13 -7 0 -11 6 -8 13 2 6 -5 19 -17 27 -14 10 -17 16 -9 19 10 3 10 6 1 12
-7 4 -12 6 -13 4z"/>
<path d="M858 4163 c11 -4 10 -8 -1 -22 -10 -10 -12 -23 -7 -36 8 -18 9 -18 9
-2 1 10 6 15 11 12 6 -4 10 -3 9 2 -4 15 13 43 23 37 5 -3 4 -13 -4 -22 -12
-15 -11 -16 5 -3 22 17 9 33 -30 37 -15 1 -22 0 -15 -3z"/>
<path d="M3900 4060 c-16 -10 -21 -68 -7 -77 6 -3 7 -1 3 5 -10 17 3 15 20 -3
11 -11 12 -15 3 -15 -7 0 -10 -3 -6 -6 12 -12 28 7 18 20 -6 7 -7 17 -3 21 4
5 2 5 -4 2 -17 -10 -27 23 -13 40 15 17 8 25 -11 13z"/>
<path d="M3967 4004 c-4 -4 -3 -12 1 -18 3 -6 7 -23 8 -38 1 -20 -2 -25 -14
-20 -14 5 -15 4 -2 -10 9 -9 18 -12 21 -6 3 5 10 8 14 6 5 -1 9 5 11 15 3 22
-30 80 -39 71z"/>
<path d="M515 3840 c-11 -12 -13 -20 -6 -20 7 0 10 -4 7 -9 -3 -4 1 -17 9 -27
12 -15 14 -15 9 -3 -3 10 -1 20 5 24 6 3 11 1 11 -4 0 -6 5 -11 11 -11 8 0 8
5 -1 15 -10 12 -10 15 1 15 9 1 8 4 -4 11 -9 6 -15 14 -12 20 11 17 -12 9 -30
-11z"/>
<path d="M4403 3353 c16 -18 16 -22 2 -33 -8 -7 -12 -17 -8 -23 4 -6 13 -1 25
12 20 26 17 35 -15 52 -21 12 -22 11 -4 -8z"/>
<path d="M225 3339 c3 -16 0 -18 -22 -13 -18 5 -24 4 -19 -5 4 -6 12 -9 17 -6
5 4 9 2 9 -3 0 -5 -12 -14 -26 -21 -21 -9 -24 -14 -14 -26 13 -15 4 -39 -11
-30 -5 4 -9 1 -9 -4 0 -6 3 -11 8 -12 4 0 15 -2 25 -4 15 -3 16 -1 6 11 -9 11
-8 14 5 14 9 0 16 5 16 10 0 6 -5 9 -11 8 -21 -5 -21 23 0 29 12 3 21 10 21
15 0 5 5 6 12 2 6 -4 8 -3 4 4 -3 5 0 13 6 15 9 4 8 6 -2 6 -12 1 -12 3 -2 10
11 7 11 9 -1 14 -11 4 -15 0 -12 -14z"/>
<path d="M4411 3281 c-9 -6 -10 -11 -2 -15 6 -4 15 -4 21 -1 6 3 7 -1 4 -9 -3
-9 -10 -13 -15 -10 -5 3 -6 -2 -3 -10 8 -20 18 -20 34 0 11 12 10 18 -6 34
-12 13 -24 16 -33 11z"/>
<path d="M4505 3071 c-3 -6 -13 -8 -23 -5 -14 5 -14 3 2 -6 15 -10 16 -14 5
-22 -11 -7 -9 -8 5 -4 14 5 17 2 13 -13 -7 -26 9 -49 23 -35 8 8 8 14 1 18 -5
4 -8 13 -4 21 3 8 0 15 -7 15 -10 0 -10 3 -1 14 8 9 8 16 2 20 -5 4 -12 2 -16
-3z"/>
<path d="M4574 2942 c-19 -16 -19 -19 -6 -32 14 -13 15 -12 9 2 -4 12 0 19 14
23 10 4 19 11 19 16 0 14 -12 10 -36 -9z"/>
<path d="M4585 2903 c-6 -26 -8 -27 -20 -10 -11 16 -13 16 -19 2 -3 -9 -2 -13
4 -10 5 3 14 -3 19 -14 15 -26 14 -38 -1 -23 -7 7 -17 12 -22 12 -6 0 -3 -5 7
-11 15 -9 16 -13 6 -26 -10 -12 -10 -16 2 -24 12 -8 12 -10 -1 -19 -10 -6 -11
-10 -2 -10 6 0 12 -9 12 -21 0 -13 -4 -18 -12 -13 -7 4 -8 3 -4 -4 4 -6 13 -9
20 -6 14 5 15 52 1 74 -5 8 -4 11 2 7 5 -3 10 0 10 8 0 8 -5 12 -11 9 -6 -3
-2 3 9 13 24 21 31 53 13 53 -8 0 -9 3 -3 8 13 9 17 32 6 32 -5 0 -12 -12 -16
-27z"/>
<path d="M20 2860 c-13 -13 -16 -44 -16 -163 0 -81 4 -147 8 -147 4 0 4 7 1
17 -5 12 -3 14 8 8 12 -8 12 -6 0 8 -7 9 -9 17 -3 17 5 0 13 7 16 16 3 8 2 12
-4 9 -17 -11 -11 7 7 22 16 13 16 13 -4 3 -27 -13 -30 -3 -6 17 10 8 13 12 7
9 -7 -3 -14 0 -17 8 -4 10 1 13 16 10 13 -3 16 -2 7 2 -23 10 -30 27 -18 41 7
9 7 17 -1 26 -8 10 -7 17 1 25 9 9 9 12 -2 12 -9 0 -7 5 5 14 11 8 23 12 27
10 4 -2 10 1 14 7 4 8 3 9 -4 5 -7 -4 -12 -2 -12 5 0 7 -8 5 -20 -6 -11 -10
-20 -14 -20 -8 0 15 47 36 62 28 10 -6 11 -5 1 5 -18 19 -36 19 -53 0z"/>
<path d="M2318 2832 c-16 -3 -21 -13 -20 -32 0 -3 -16 -5 -36 -5 -26 0 -44 -7
-59 -22 -12 -13 -27 -23 -32 -23 -5 0 -8 -9 -6 -20 2 -11 0 -18 -6 -15 -5 4
-9 -1 -9 -10 0 -19 -29 -67 -47 -78 -8 -5 -23 -18 -35 -30 -11 -12 -18 -15
-14 -7 4 8 -1 5 -12 -7 -21 -24 -38 -31 -26 -11 4 7 3 8 -4 4 -17 -11 -15 -30
9 -62 15 -21 13 -20 -10 5 -16 19 -27 39 -24 45 4 6 -3 2 -15 -8 -26 -23 -26
-22 -6 -30 8 -3 12 -2 9 4 -3 6 -1 10 4 10 6 0 11 -12 11 -26 0 -14 4 -23 9
-20 4 3 16 -3 26 -14 10 -11 14 -20 10 -20 -5 0 -4 -5 3 -12 8 -8 15 -8 29 3
10 7 15 9 11 5 -9 -11 31 -48 43 -40 5 3 9 0 9 -6 0 -8 9 -10 26 -6 24 6 25 6
10 -9 -17 -17 -19 -29 -16 -81 1 -18 -6 -38 -15 -48 -9 -9 -13 -21 -9 -27 4
-7 3 -9 -3 -6 -6 4 -17 -1 -24 -10 -10 -12 -10 -14 -1 -9 15 9 16 -6 0 -22 -9
-9 -9 -12 0 -12 7 0 12 -9 12 -21 0 -11 4 -18 9 -15 5 4 13 -8 17 -26 11 -49
11 -77 0 -71 -5 4 -6 -1 -2 -12 6 -16 4 -16 -10 -4 -15 12 -16 11 -10 -9 6
-17 3 -22 -9 -22 -9 0 -13 -5 -10 -10 8 -13 -14 -42 -26 -34 -5 3 -9 0 -9 -5
0 -6 -6 -10 -12 -8 -7 1 -12 -3 -11 -10 2 -7 -6 -10 -18 -8 -15 3 -19 0 -15
-10 2 -7 0 -16 -7 -19 -9 -3 -9 -5 1 -5 6 -1 12 -13 12 -27 0 -14 4 -23 10
-19 14 9 12 -8 -2 -24 -8 -8 -8 -11 -2 -8 7 4 14 -2 17 -13 3 -11 1 -18 -4
-14 -5 3 -9 -2 -9 -10 0 -19 40 -47 54 -39 6 4 5 0 -2 -9 -10 -13 -10 -18 -1
-24 8 -4 9 -3 5 4 -4 7 -3 12 3 12 5 0 12 -6 14 -12 3 -7 3 5 0 27 -4 22 -11
43 -17 47 -7 5 -6 8 4 8 13 0 13 1 0 10 -8 5 -10 10 -4 10 7 0 15 11 18 25 4
14 10 24 15 21 4 -3 7 6 5 19 -1 14 2 23 7 19 5 -3 9 2 9 11 0 10 5 13 13 9 6
-4 9 -4 5 1 -4 4 -2 15 5 23 10 13 9 14 -3 7 -9 -5 -8 0 4 13 21 24 32 29 20
10 -4 -7 -3 -8 4 -4 7 4 12 14 12 23 0 12 3 13 14 4 10 -9 15 -8 20 4 3 8 13
15 23 15 14 0 15 2 5 9 -11 7 -11 9 2 14 9 4 16 12 16 18 0 8 -4 8 -15 -1 -13
-11 -14 -10 -9 4 3 9 10 16 16 16 5 0 6 5 3 10 -3 6 -1 10 4 10 6 0 10 6 9 13
-2 6 2 11 9 10 11 -2 24 21 22 41 0 5 5 13 13 17 7 5 8 9 2 9 -7 0 -11 27 -9
79 1 66 6 86 26 115 13 20 28 36 33 36 5 0 3 -7 -4 -15 -7 -8 -9 -15 -5 -15 4
0 -5 -14 -19 -30 l-25 -31 32 -30 c18 -17 25 -27 17 -23 -12 6 -13 5 -4 -7 6
-8 10 -23 8 -34 -2 -11 -5 -40 -7 -65 -2 -25 -6 -51 -11 -58 -5 -8 -2 -10 9
-6 9 4 15 3 14 -2 -4 -22 2 -34 16 -34 8 0 15 -6 15 -14 0 -8 5 -18 12 -22 7
-5 8 -2 3 7 -5 8 -4 11 1 6 4 -4 8 -23 9 -41 0 -36 21 -69 38 -59 6 3 7 1 3
-6 -4 -6 -2 -19 6 -28 11 -15 11 -16 -6 -10 -16 6 -17 5 -6 -8 7 -8 17 -12 23
-8 5 3 7 1 3 -5 -3 -6 -1 -14 5 -17 5 -4 8 -13 5 -21 -3 -7 3 -18 12 -23 16
-10 16 -10 0 -11 -17 0 -19 -15 -4 -39 6 -10 5 -12 -2 -7 -7 4 -12 1 -12 -8 0
-10 6 -13 15 -10 8 4 15 11 15 17 0 6 3 7 7 4 3 -4 13 2 20 13 12 18 13 24 1
38 -12 16 -11 16 6 2 18 -14 19 -13 13 2 -4 11 -2 17 6 15 7 -1 11 4 10 10 -2
7 3 12 10 10 6 -1 11 4 10 11 -2 6 2 12 7 12 16 0 7 24 -14 35 -10 5 -19 15
-20 20 0 6 -12 20 -26 32 -18 16 -21 23 -10 23 12 1 11 3 -3 14 -10 8 -18 18
-19 23 0 4 -4 7 -10 5 -5 -1 -7 2 -3 8 3 5 0 13 -8 15 -15 6 -16 32 -2 54 5 9
4 12 -2 8 -7 -5 -10 9 -8 41 4 64 4 64 13 58 5 -3 9 1 9 9 0 8 -4 12 -8 9 -5
-3 -2 10 6 28 8 19 20 32 29 32 10 -1 18 9 22 25 3 14 10 34 15 45 7 12 7 16
0 12 -5 -4 -13 3 -16 15 -4 11 -13 18 -20 15 -14 -5 -15 11 -1 33 6 10 5 12
-2 7 -8 -5 -12 0 -12 13 0 18 32 38 53 33 4 -1 7 2 7 8 0 6 -6 10 -12 10 -9 0
-8 3 2 9 8 6 19 7 25 4 5 -4 2 3 -7 14 -20 21 -24 38 -8 28 6 -3 7 1 4 9 -3 9
-10 13 -15 10 -5 -3 -9 4 -9 16 0 12 -4 19 -9 15 -6 -3 -8 3 -6 15 2 11 0 19
-5 17 -5 -1 -16 7 -25 18 -9 11 -13 13 -9 5 4 -8 -3 -5 -14 7 -14 14 -28 19
-43 16 -12 -4 -20 -2 -16 3 7 12 -13 38 -36 47 -18 7 -19 27 -2 39 6 5 5 8 -4
8 -7 0 -11 6 -8 15 4 8 1 17 -5 21 -7 5 -8 2 -3 -6 6 -9 4 -11 -4 -6 -7 5 -10
13 -8 20 5 11 -24 16 -55 8z m55 -361 c3 -12 -1 -22 -9 -25 -8 -3 -14 0 -14 6
0 7 -4 7 -14 -1 -24 -20 -29 6 -6 29 23 23 35 20 43 -9z m-283 -579 c0 -5 -8
-17 -19 -26 -17 -16 -19 -16 -24 4 -3 11 -1 18 4 14 5 -3 9 0 9 5 0 6 7 11 15
11 8 0 15 -4 15 -8z m470 -2 c-12 -8 -12 -10 -1 -10 8 0 11 -3 8 -7 -4 -3 -2
-11 3 -18 7 -8 5 -12 -5 -12 -8 0 -15 4 -15 9 0 5 -4 7 -9 4 -5 -4 -8 0 -7 6
3 21 16 38 29 38 7 0 6 -4 -3 -10z"/>
<path d="M4595 2768 c1 -22 -6 -42 -19 -57 -12 -13 -16 -21 -9 -17 6 3 14 2
18 -4 3 -5 12 -10 18 -10 7 0 6 4 -3 10 -8 5 -10 10 -4 10 7 0 11 20 10 50 0
28 -3 50 -7 50 -4 0 -6 -15 -4 -32z"/>
<path d="M26 2781 c-4 -6 0 -14 9 -17 15 -6 15 -8 0 -24 -11 -12 -13 -20 -6
-25 6 -3 12 -4 12 -1 1 3 2 9 3 14 1 4 4 12 8 18 4 6 1 19 -6 29 -9 13 -15 15
-20 6z"/>
<path d="M4575 2031 c-3 -6 0 -9 8 -5 8 3 14 -2 14 -11 0 -8 -5 -15 -10 -15
-5 0 -6 -7 -3 -16 4 -9 1 -23 -5 -30 -8 -10 -8 -14 0 -14 6 0 11 6 11 13 0 8
3 7 10 -3 7 -12 9 -10 7 8 0 12 -5 22 -10 22 -6 0 -6 5 0 13 5 6 9 18 9 26 -1
18 -22 26 -31 12z"/>
<path d="M9 2028 c-6 -18 -5 -68 1 -79 8 -11 11 -12 22 -1 11 11 10 13 -1 10
-7 -2 -16 3 -19 11 -3 10 0 11 9 5 12 -7 12 -5 0 9 -13 16 -8 22 13 18 5 -1 4
5 -4 13 -12 15 -19 19 -21 14z"/>
<path d="M5 1899 c-1 -20 3 -25 15 -22 13 4 13 3 0 -9 -17 -14 -25 -62 -9 -52
6 3 8 13 5 21 -3 8 -1 11 4 8 6 -3 11 1 11 9 2 25 4 30 13 45 6 10 5 12 -2 7
-7 -4 -12 -3 -12 3 0 5 6 11 13 14 6 2 1 4 -13 3 -20 -1 -25 -6 -25 -27z"/>
<path d="M4576 1915 c12 -8 14 -14 5 -19 -6 -4 -9 -12 -6 -17 4 -5 -2 -9 -12
-10 -16 0 -16 -1 2 -9 11 -5 16 -9 12 -9 -4 -1 -2 -11 4 -23 6 -12 13 -37 14
-57 2 -20 1 -30 -2 -23 -2 6 -9 10 -13 7 -5 -3 -12 0 -16 6 -5 8 -3 9 7 4 11
-7 11 -5 -1 10 -12 15 -12 17 -1 10 10 -6 12 -4 6 5 -6 9 -4 11 5 5 9 -5 11
-4 6 3 -9 15 -9 15 -35 -7 -18 -16 -19 -20 -6 -25 9 -3 13 -11 9 -17 -4 -8 -9
-7 -15 2 -6 10 -8 7 -9 -9 -1 -56 -2 -62 -8 -58 -4 3 -8 -4 -8 -14 0 -10 4
-16 8 -14 4 3 8 -4 8 -15 0 -20 -14 -29 -23 -13 -2 4 -2 1 0 -7 2 -7 -2 -20
-8 -27 -9 -11 -9 -14 0 -14 7 0 10 -4 6 -10 -3 -5 -13 -7 -23 -4 -10 4 -13 2
-7 -3 17 -14 16 -33 -2 -33 -24 0 -12 -8 21 -14 23 -4 26 -3 16 10 -11 13 -7
18 13 15 4 0 7 4 7 9 0 6 -5 10 -11 10 -8 0 -8 4 0 14 6 8 11 18 9 22 -1 5 3
19 10 30 6 12 8 24 4 28 -3 4 1 4 10 1 9 -4 19 -2 23 4 3 7 0 8 -9 5 -19 -7
-21 7 -3 25 10 11 9 12 -2 6 -10 -5 -12 -4 -7 4 4 6 12 9 17 5 6 -4 5 -11 -2
-20 -11 -13 -9 -13 14 -3 l27 12 -26 18 c-26 17 -19 34 9 23 13 -5 15 4 14 45
0 27 -4 48 -9 45 -4 -3 -8 0 -8 5 0 6 5 11 12 11 6 0 3 7 -8 15 -16 13 -16 14
-1 9 13 -5 16 -2 14 12 -1 11 -6 24 -10 31 -4 6 -1 13 5 16 7 2 1 4 -15 4 -24
0 -25 -1 -11 -12z"/>
<path d="M35 1843 c-12 -30 -14 -63 -3 -63 7 0 6 -5 -1 -14 -10 -12 -8 -17 9
-26 17 -9 25 -9 34 0 8 8 6 9 -9 4 -11 -4 -17 -4 -13 1 4 4 2 17 -4 29 l-11
21 24 -20 c13 -11 19 -13 13 -5 -6 8 -10 23 -9 33 2 9 -1 17 -7 17 -6 0 -8 -7
-5 -14 4 -10 1 -13 -8 -10 -11 4 -12 12 -4 31 11 29 5 44 -6 16z"/>
<path d="M3 1715 c1 -54 5 -85 11 -85 6 0 4 -5 -4 -10 -13 -8 -12 -11 5 -25
20 -15 20 -15 0 -8 -18 6 -19 5 -5 -12 8 -10 10 -16 3 -12 -9 6 -12 -181 -13
-778 l-1 -786 751 2 c435 0 752 5 756 10 3 5 13 9 22 8 14 0 13 -2 -3 -9 -11
-4 43 -7 125 -5 171 3 160 1 160 20 0 8 6 12 14 9 22 -8 30 16 12 34 -9 9 -16
11 -16 5 0 -6 6 -13 13 -16 6 -2 9 -8 5 -12 -9 -9 -40 14 -33 24 4 8 -6 10
-60 13 -19 1 -35 6 -35 11 0 5 -7 6 -15 3 -52 -21 -51 -21 -35 -1 9 11 10 16
3 11 -7 -4 -13 -3 -13 2 0 6 -20 10 -45 9 -26 0 -40 -4 -33 -8 9 -6 8 -10 -5
-15 -9 -3 -17 -14 -17 -23 0 -12 2 -13 9 -3 4 8 12 14 17 15 5 1 8 5 7 9 -2 4
5 5 15 2 14 -5 15 -4 2 5 -9 7 -10 11 -3 11 19 0 26 -20 9 -26 -14 -5 -14 -8
0 -29 12 -19 13 -25 2 -31 -7 -4 -10 -4 -6 1 4 4 3 16 -3 26 -8 16 -14 17 -30
9 -19 -11 -18 -30 2 -30 6 0 7 4 4 10 -3 5 -2 10 4 10 5 0 9 -8 8 -19 -1 -12
-7 -17 -19 -13 -10 2 -18 9 -18 14 0 5 -6 6 -12 2 -9 -5 -9 -2 1 9 9 12 10 17
2 17 -7 0 -9 5 -5 13 4 7 3 9 -2 4 -9 -8 -10 -12 -13 -39 0 -7 -8 -2 -17 10
-16 23 -41 32 -27 10 13 -21 12 -35 -3 -35 -9 0 -11 4 -4 12 6 7 5 16 -2 23
-7 7 -8 12 -4 12 5 0 3 7 -4 15 -9 10 -9 15 -1 15 6 0 11 5 11 10 0 10 -40 7
-59 -4 -5 -3 -20 3 -32 15 -13 11 -17 17 -9 12 25 -14 82 -12 76 3 -3 7 0 16
6 20 7 5 8 2 3 -6 -6 -9 -4 -11 5 -5 9 6 11 4 5 -4 -6 -10 -2 -11 16 -1 23 11
23 10 5 -4 -11 -9 -15 -16 -10 -16 6 0 11 -7 11 -15 0 -8 -4 -12 -9 -9 -4 3
-8 1 -8 -5 0 -11 35 -9 63 3 9 5 17 12 17 16 0 10 -26 7 -36 -3 -13 -13 -27
-7 -15 6 6 8 7 18 3 22 -4 5 2 5 12 1 16 -5 17 -4 7 8 -7 8 -21 15 -32 15 -10
1 -28 1 -40 2 -18 0 -19 2 -7 16 8 11 8 14 1 10 -6 -4 -14 -3 -18 3 -3 5 -12
10 -18 10 -8 0 -7 -4 2 -9 8 -5 16 -18 18 -29 2 -15 -3 -19 -22 -19 -14 0 -28
3 -31 8 -3 5 0 9 6 9 6 0 9 4 5 9 -8 14 -44 5 -69 -16 -21 -18 -21 -18 -3 3 9
11 17 27 17 35 0 9 -8 4 -20 -11 -11 -14 -20 -20 -20 -14 0 5 6 16 13 23 10
12 9 13 -7 7 -18 -6 -45 17 -46 39 0 6 5 3 10 -5 7 -11 10 -11 10 -2 0 7 5 10
11 6 8 -5 8 -9 -1 -14 -9 -5 -9 -9 -1 -14 6 -4 11 -3 11 2 0 5 7 9 15 9 8 0
12 -4 9 -9 -3 -5 -2 -8 3 -7 19 3 34 -2 29 -9 -3 -5 1 -9 9 -9 8 0 15 4 15 9
0 4 -5 8 -11 8 -5 0 -8 3 -6 8 3 4 -2 14 -11 22 -14 13 -15 12 -9 -5 6 -16 3
-14 -13 5 -16 20 -19 21 -13 5 6 -18 5 -18 -10 -6 -9 7 -14 18 -10 25 4 6 0 5
-9 -2 -10 -8 -19 -9 -22 -3 -3 5 -2 11 4 13 6 2 6 8 0 18 -8 13 -10 12 -10 -3
0 -10 -4 -16 -10 -12 -5 3 -7 13 -4 23 5 14 4 14 -4 2 -6 -8 -8 -18 -5 -23 3
-5 -5 -6 -18 -2 -21 7 -22 6 -10 -9 10 -12 17 -13 26 -6 9 8 15 8 20 0 3 -5 1
-10 -6 -10 -7 0 -21 -7 -31 -17 -11 -9 -18 -11 -18 -5 0 7 5 12 11 12 5 0 7 5
4 10 -5 8 -12 7 -23 -2 -15 -12 -16 -11 -3 5 15 20 2 23 -18 5 -9 -9 -12 -9
-7 -1 3 6 1 13 -5 15 -8 3 -6 15 6 38 10 19 14 32 10 28 -5 -4 -14 0 -22 10
-12 16 -13 15 -6 -3 6 -18 5 -19 -11 -6 -9 8 -27 15 -39 15 -12 1 -28 5 -35 9
-7 5 -18 2 -27 -7 -16 -16 -19 -27 -7 -25 20 3 33 -2 27 -11 -4 -6 -12 -7 -18
-3 -8 4 -7 1 1 -9 14 -18 49 -16 66 3 8 9 7 10 -4 4 -12 -7 -13 -6 -2 6 11 12
14 12 22 -1 9 -13 10 -13 10 0 0 12 2 13 9 1 6 -9 10 -10 14 -2 3 7 4 7 2 -1
-1 -7 -8 -12 -15 -10 -7 1 -9 -4 -5 -16 4 -16 1 -19 -20 -19 -23 -1 -24 1 -8
12 10 8 15 16 12 19 -3 3 -15 -3 -27 -14 -19 -18 -23 -18 -49 -5 -25 14 -29
13 -42 -3 -12 -15 -12 -15 -6 7 6 19 4 23 -8 18 -12 -4 -14 -2 -10 10 5 12 3
14 -8 7 -16 -10 -63 -14 -53 -5 3 3 14 7 25 7 10 1 22 3 27 4 4 1 14 3 22 4 9
0 14 9 12 21 -2 11 -1 17 4 13 4 -4 13 -3 20 3 10 8 11 16 3 30 -5 11 -14 17
-18 14 -5 -2 -15 3 -22 12 -12 14 -11 15 11 9 l25 -7 -23 14 c-12 7 -19 17
-15 22 4 5 -1 3 -11 -5 -18 -14 -19 -13 -13 2 4 13 2 15 -10 11 -11 -4 -14 -3
-9 6 4 6 4 10 -1 9 -4 -1 -18 3 -30 10 -12 6 -28 10 -36 7 -8 -4 -14 0 -14 10
0 9 6 14 13 11 8 -3 16 0 20 7 4 7 4 9 -1 5 -4 -4 -14 -3 -22 3 -9 9 -13 8
-13 0 0 -6 -5 -11 -11 -11 -6 0 -9 6 -6 13 3 8 1 20 -5 28 -8 11 -9 11 -5 -3
3 -9 0 -19 -8 -22 -10 -3 -12 2 -9 20 4 20 -7 32 -19 22 -6 -7 -34 28 -29 36
3 5 0 6 -7 2 -6 -4 -8 -13 -5 -19 4 -7 4 -9 -1 -5 -4 4 -16 3 -26 -2 -11 -7
-26 -6 -41 0 -22 10 -22 10 4 5 23 -4 26 -2 23 15 -2 11 1 23 7 26 7 5 8 2 3
-6 -6 -9 -4 -11 6 -5 12 8 12 6 0 -8 -7 -9 -9 -17 -4 -17 5 0 15 10 20 23 10
21 9 23 -11 21 -11 -1 -24 -3 -28 -3 -5 -1 -8 -8 -8 -16 0 -24 -14 -18 -55 23
-22 21 -35 29 -32 19 4 -11 3 -16 -3 -12 -6 4 -10 12 -9 18 3 24 -1 37 -10 34
-5 -1 -16 7 -25 18 -12 16 -17 18 -27 8 -7 -7 -17 -13 -23 -13 -5 0 -1 7 10
16 17 14 17 15 1 10 -11 -3 -16 -2 -12 4 3 6 0 11 -7 11 -7 1 -19 2 -27 3 -8
0 -15 9 -17 19 -1 11 -5 21 -8 24 -9 9 24 64 34 58 6 -4 10 -11 10 -16 0 -6
-4 -8 -9 -4 -14 8 -31 -28 -21 -45 5 -8 6 -18 4 -22 -3 -4 -1 -8 5 -8 14 0 23
18 12 25 -5 3 -9 15 -8 26 1 19 3 19 25 -8 13 -15 21 -22 17 -14 -6 9 -4 12 3
7 17 -10 15 -29 -3 -23 -8 4 -17 2 -20 -3 -4 -6 -3 -11 2 -11 4 -1 17 -3 28
-4 11 -2 26 -4 34 -6 7 -2 15 1 18 7 2 7 -4 11 -13 10 -9 0 -18 5 -20 12 -1 7
0 8 3 2 2 -5 9 -8 14 -4 14 8 -33 43 -50 36 -8 -3 -12 -1 -8 5 4 6 -2 22 -13
36 -25 31 -26 44 -2 26 16 -13 16 -13 0 7 -18 21 -58 30 -58 13 0 -6 4 -8 9
-4 6 3 15 -3 21 -14 7 -13 7 -22 0 -26 -5 -3 -10 0 -10 8 0 16 -27 30 -41 21
-5 -3 -9 -10 -9 -16 0 -7 5 -6 14 1 23 20 38 -18 20 -49 l-15 -25 7 24 c5 18
3 22 -7 16 -11 -6 -12 -5 -1 6 17 18 15 34 -2 20 -18 -15 -32 4 -17 23 11 13
5 26 -11 26 -5 0 -6 -4 -3 -10 3 -5 1 -10 -5 -10 -7 0 -9 7 -6 16 3 9 6 18 6
21 0 4 9 -2 20 -12 17 -16 20 -16 15 -3 -9 22 -36 31 -48 16 -6 -10 -7 -9 -4
4 7 20 -19 32 -27 12 -3 -8 -10 -14 -16 -14 -5 0 2 13 16 29 39 45 57 82 44
95 -8 8 -9 6 -4 -7 4 -12 2 -17 -6 -15 -7 2 -14 -5 -15 -15 -6 -33 -45 -65
-45 -36 0 5 5 7 10 4 6 -3 10 1 10 10 0 9 8 28 17 43 l17 27 -21 -18 c-17 -15
-26 -16 -40 -8 -10 6 -13 11 -8 11 6 0 3 5 -5 11 -13 9 -12 10 2 5 10 -3 20
-1 23 4 4 6 12 10 18 10 8 0 8 -3 -2 -9 -8 -5 -9 -11 -3 -15 5 -3 12 1 16 9 3
9 12 12 23 9 17 -5 17 -5 0 6 -9 6 -15 16 -11 21 3 5 2 9 -3 8 -20 -3 -34 2
-28 11 3 6 1 10 -5 10 -6 0 -9 4 -5 9 3 5 1 12 -5 16 -6 4 -8 10 -5 15 3 5 -3
7 -15 5 -11 -2 -23 1 -26 7 -4 6 -3 8 3 5 6 -4 19 1 29 9 17 14 17 15 1 10
-13 -4 -21 2 -29 22 -13 30 -15 37 -17 53 0 5 -6 7 -11 4 -6 -3 -10 3 -10 14
0 12 -4 21 -9 21 -5 0 -8 -8 -7 -17 1 -12 -8 -17 -32 -19 -40 -2 -47 8 -22 31
21 19 28 41 10 30 -13 -8 -40 12 -40 29 0 6 7 3 14 -6 15 -21 27 -23 24 -5 -2
6 -12 17 -23 24 -17 10 -22 8 -32 -10 -7 -12 -12 -16 -13 -9 0 6 9 21 20 32
22 22 27 35 8 24 -6 -4 -9 -3 -6 2 3 5 0 15 -8 21 -7 7 -15 9 -19 4 -3 -5 -1
-12 5 -16 13 -8 13 -25 0 -25 -5 0 -9 6 -7 13 1 6 -5 11 -13 9 -11 -3 -10 2 4
17 17 19 15 26 -7 22 -5 -1 -5 4 -1 10 5 8 2 10 -8 6 -12 -4 -14 -1 -10 15 4
18 6 18 14 4 5 -9 14 -13 21 -9 19 12 37 12 37 1 0 -6 -8 -7 -17 -4 -15 5 -15
4 1 -9 11 -8 14 -15 7 -15 -7 0 -9 -5 -5 -11 4 -8 9 -7 15 2 7 12 9 11 10 -1
1 -8 1 -18 0 -22 0 -4 5 -5 13 -2 15 6 19 54 4 54 -5 0 -6 -4 -3 -10 3 -5 2
-10 -4 -10 -15 0 -23 18 -10 26 8 4 7 9 -2 15 -18 11 -18 31 -1 45 11 8 11 13
-5 25 -16 13 -17 13 -4 -3 8 -11 9 -18 3 -18 -6 0 -16 8 -21 18 -6 9 -11 13
-11 7 -1 -5 -3 -18 -5 -28 -2 -9 0 -15 4 -12 4 2 8 -2 8 -10 0 -8 -6 -16 -13
-19 -9 -3 -11 1 -7 11 4 11 2 14 -5 9 -7 -4 -12 -2 -12 3 0 6 5 11 11 11 5 0
7 5 4 10 -5 8 -12 7 -23 -2 -10 -7 -14 -9 -10 -4 4 5 0 15 -8 23 -8 9 -13 22
-10 29 21 50 21 50 3 35 -10 -8 -20 -11 -24 -8 -3 4 2 9 11 13 22 8 21 25 -1
18 -15 -5 -15 -4 -3 4 8 6 18 8 23 5 5 -3 6 5 2 18 -4 17 -3 20 3 10 6 -8 15
-10 23 -5 12 6 12 5 0 -9 -12 -16 -8 -22 12 -18 5 1 6 -3 2 -9 -5 -8 -11 -7
-21 1 -8 6 -14 8 -14 3 0 -15 14 -29 29 -29 8 0 15 -6 17 -13 1 -7 0 -8 -3 -2
-2 5 -9 10 -15 10 -7 0 -6 -5 1 -14 8 -10 9 -16 1 -21 -6 -3 -7 -11 -4 -17 5
-7 11 -3 16 11 4 13 13 19 19 15 8 -5 8 -1 0 13 -6 11 -7 24 -3 28 4 5 1 4 -7
0 -11 -6 -13 -4 -8 7 3 9 3 19 -1 23 -10 10 -9 29 3 38 5 5 0 5 -13 2 -34 -10
-70 17 -67 49 2 14 0 26 -4 26 -4 0 -8 -38 -8 -85z m244 -448 c1 -24 8 -42 23
-55 8 -8 10 -11 3 -8 -15 8 -25 -8 -17 -28 5 -12 10 -14 19 -6 14 12 27 -1 32
-30 1 -7 11 -21 22 -30 20 -14 18 -15 -30 -16 -50 0 -51 0 -31 17 12 9 18 19
15 23 -3 3 -12 1 -20 -5 -9 -9 -13 -8 -13 0 0 6 5 11 11 11 5 0 7 5 4 10 -4 6
-10 8 -14 6 -4 -3 -13 0 -21 6 -12 8 -11 9 3 4 12 -4 17 -2 14 6 -2 7 -13 12
-23 11 -10 -1 -13 0 -6 3 6 3 12 10 12 15 0 6 -6 7 -12 3 -9 -5 -9 -3 1 9 12
15 10 18 -10 26 -18 6 -26 5 -31 -8 -6 -13 -7 -12 -5 4 2 13 9 19 21 17 12 -2
15 1 11 8 -9 14 13 30 30 24 6 -3 12 -10 12 -17z m63 -597 c0 -13 -1 -13 -10
0 -6 10 -10 11 -10 3 0 -7 -5 -13 -11 -13 -7 0 -9 10 -7 24 3 16 1 23 -8 19
-6 -2 -15 0 -19 6 -3 7 0 8 10 5 11 -5 14 -2 9 12 -5 12 3 8 19 -11 15 -16 27
-37 27 -45z m475 -99 c6 -1 9 -13 8 -27 -2 -17 2 -24 10 -21 7 3 21 -1 32 -9
12 -9 14 -14 6 -14 -8 0 -2 -9 12 -20 30 -24 45 -26 27 -5 -9 10 -9 15 -1 15
6 0 11 -5 11 -11 0 -5 4 -8 9 -5 4 3 18 -6 31 -19 13 -13 28 -22 34 -18 6 3 8
2 3 -2 -10 -11 23 -46 36 -38 6 3 7 1 3 -5 -4 -7 -2 -12 5 -12 16 0 1 -15 -14
-15 -7 0 -11 -8 -11 -18 1 -9 -2 -14 -8 -11 -5 3 -6 14 -3 25 5 15 3 18 -12
13 -16 -6 -15 -5 2 10 14 11 15 14 4 10 -10 -3 -19 1 -22 10 -4 10 -13 13 -24
10 -15 -5 -16 -4 -3 5 8 6 12 11 8 11 -3 0 -14 3 -24 7 -10 4 -15 2 -11 -3 3
-6 2 -16 -4 -24 -6 -11 -9 -11 -9 -2 0 9 -5 10 -19 2 -11 -5 -23 -10 -28 -10
-4 1 4 7 19 16 17 9 25 20 22 29 -4 8 -11 12 -17 8 -5 -3 -7 -1 -3 5 3 6 2 13
-4 17 -5 3 -10 -2 -11 -12 -1 -13 -3 -11 -8 6 -3 13 -16 30 -29 39 -20 13 -22
13 -22 -2 0 -9 5 -15 11 -13 7 1 15 -10 20 -26 4 -16 4 -25 -2 -21 -5 3 -9 14
-9 25 0 10 -6 18 -12 17 -8 -2 -12 7 -11 24 1 18 -2 25 -11 22 -8 -3 -21 3
-31 12 -14 15 -18 15 -26 3 -6 -9 -9 -10 -9 -2 0 17 53 43 65 33 6 -5 15 -9
20 -9z m293 -236 c21 4 22 3 5 -19 -10 -12 -23 -23 -30 -23 -9 0 -10 4 -2 14
9 9 7 14 -5 19 -9 3 -13 11 -10 16 4 7 9 6 13 -1 4 -6 17 -9 29 -6z m569 -257
c2 -15 -1 -29 -7 -33 -11 -7 -12 -4 -14 38 -2 34 16 30 21 -5z m-640 9 c2 -2
1 -11 -2 -19 -9 -22 -33 -17 -38 8 -3 18 0 21 16 18 11 -2 21 -5 24 -7z m736
-12 c15 1 27 -3 27 -8 0 -6 3 -7 7 -4 3 4 12 2 19 -4 10 -8 11 -16 3 -30 -9
-18 -11 -18 -51 7 -26 17 -39 21 -35 12 3 -8 1 -21 -4 -29 -7 -12 -9 -12 -10
1 -1 8 0 21 1 29 1 10 -11 5 -37 -13 l-38 -27 35 32 c24 22 29 30 15 25 -20
-6 -20 -6 -1 9 11 8 24 11 30 6 6 -4 23 -7 39 -6z"/>
<path d="M743 573 c-10 -4 -10 -7 0 -17 16 -17 44 -16 44 1 0 7 -3 11 -5 8 -3
-3 -10 -1 -16 4 -6 4 -17 6 -23 4z"/>
<path d="M1720 65 c0 -2 15 -12 34 -23 28 -17 35 -18 40 -7 3 8 0 17 -6 21 -7
4 -8 3 -4 -4 4 -7 2 -12 -3 -12 -6 0 -11 4 -11 9 0 5 -11 11 -25 13 -14 3 -25
4 -25 3z"/>
<path d="M4585 1660 c-3 -11 -14 -20 -23 -20 -14 0 -14 -2 -3 -9 11 -7 10 -10
-5 -13 -15 -2 -19 -12 -19 -43 0 -30 -4 -39 -15 -37 -11 2 -11 -1 2 -11 10 -8
15 -17 11 -20 -3 -4 -1 -7 5 -7 7 0 12 -5 12 -10 0 -6 -9 -5 -22 3 -13 8 -29
13 -35 12 -7 -2 -16 -3 -21 -4 -4 0 -13 -10 -20 -22 -8 -12 -9 -18 -3 -15 11
7 34 -28 24 -38 -3 -3 -3 -6 1 -6 4 0 14 7 22 15 9 8 23 14 32 14 15 -1 15 -2
0 -6 -10 -2 -18 -8 -18 -12 0 -4 -11 -13 -25 -19 -14 -6 -25 -16 -25 -22 0 -7
6 -8 19 -1 14 8 20 7 24 -3 4 -10 0 -12 -14 -9 -11 3 -19 0 -19 -6 0 -7 4 -10
8 -7 5 3 9 -1 9 -9 0 -8 -4 -12 -9 -9 -4 3 -11 -2 -14 -11 -5 -12 -9 -13 -20
-4 -17 14 -19 -2 -2 -19 9 -9 9 -12 0 -12 -7 0 -12 6 -12 13 0 7 -3 8 -8 2 -4
-5 -20 -17 -36 -25 -16 -8 -28 -19 -27 -24 2 -5 -3 -13 -11 -17 -10 -7 -9 -9
5 -9 10 0 16 -4 12 -10 -3 -5 -13 -7 -23 -4 -14 5 -15 4 -2 -5 13 -9 13 -11 0
-12 -8 -1 -19 -1 -23 0 -5 1 -6 -3 -2 -8 3 -6 13 -7 21 -4 14 5 14 3 3 -15 -9
-15 -17 -18 -25 -11 -8 7 -14 6 -19 -1 -4 -6 -3 -10 2 -9 22 4 24 -3 8 -27
-13 -20 -14 -29 -5 -38 8 -8 10 -7 5 6 -5 12 -1 20 9 24 9 3 14 10 11 14 -2 4
4 15 15 25 14 13 23 14 37 6 10 -6 14 -11 9 -11 -5 0 -3 -6 3 -13 8 -11 6 -18
-9 -32 -20 -18 -36 -23 -93 -28 -16 -2 -33 -10 -39 -20 -5 -10 -15 -14 -21
-11 -8 5 -8 3 1 -7 18 -20 15 -33 -5 -18 -16 12 -17 12 -6 -2 7 -9 9 -20 5
-24 -4 -5 -1 -5 7 0 9 5 12 4 8 -2 -4 -6 0 -16 8 -23 8 -7 15 -17 15 -23 0 -6
-7 -1 -16 11 -8 12 -19 20 -24 17 -5 -3 -12 0 -16 6 -5 8 -3 9 5 4 10 -6 11
-3 2 14 -15 27 -18 27 -16 -1 1 -14 -10 -35 -29 -53 -17 -16 -32 -33 -32 -37
-1 -5 -3 -11 -4 -15 -6 -20 4 -50 23 -72 12 -13 17 -21 10 -18 -6 4 -13 4 -16
0 -2 -5 -2 -3 -1 4 2 7 -1 15 -6 18 -6 4 -10 1 -10 -4 0 -6 -7 -11 -17 -11 -9
0 -13 -3 -10 -7 4 -3 2 -12 -4 -19 -7 -8 -7 -14 1 -19 5 -3 10 -14 10 -23 -1
-11 -6 -8 -16 11 -8 15 -18 25 -23 23 -4 -3 -8 1 -8 9 0 8 5 11 10 8 6 -4 7
-1 2 7 -5 8 -4 11 1 7 5 -3 21 3 34 14 20 15 21 18 5 12 -18 -6 -19 -5 -6 11
12 14 12 19 1 29 -10 9 -11 9 -6 -1 9 -16 -12 -44 -27 -35 -6 3 -7 1 -3 -6 4
-6 0 -14 -9 -17 -8 -4 -14 -14 -13 -23 2 -10 -3 -15 -14 -15 -14 1 -15 -2 -8
-16 5 -9 6 -20 3 -24 -3 -3 -1 -6 5 -6 16 0 24 18 10 22 -9 3 -9 6 0 12 7 4
12 2 12 -4 0 -6 4 -8 10 -5 6 3 7 -1 4 -9 -3 -9 -10 -16 -16 -16 -5 0 -6 -4
-3 -10 4 -6 -1 -7 -12 -3 -15 5 -16 3 -5 -8 6 -7 12 -18 12 -24 0 -5 -5 -2
-11 8 -6 9 -15 15 -21 11 -6 -4 -5 -10 3 -15 10 -6 11 -9 2 -9 -7 0 -15 1 -18
3 -11 5 -35 -43 -29 -60 5 -15 4 -15 -5 -3 -5 8 -13 11 -17 7 -4 -3 -1 -13 6
-22 7 -8 8 -15 3 -15 -5 0 -15 12 -21 26 -9 19 -9 24 -1 18 8 -5 9 -3 4 6 -6
9 -4 11 5 5 7 -5 11 -4 7 1 -3 5 1 18 9 29 8 10 14 15 14 11 0 -5 7 -3 15 4 8
7 12 17 8 23 -4 6 -1 7 7 2 9 -6 11 -4 5 5 -5 9 -4 11 3 6 8 -5 10 -1 5 9 -4
12 -8 13 -13 5 -4 -7 -13 -10 -19 -6 -7 5 -8 1 -4 -10 4 -12 3 -15 -6 -10 -6
4 -11 4 -10 -1 3 -20 -2 -27 -11 -13 -8 13 -10 13 -10 1 0 -14 -58 -74 -74
-78 -4 -1 -11 -4 -14 -8 -4 -4 -2 -5 3 -4 6 2 20 -2 33 -9 22 -13 22 -14 5
-42 -9 -17 -21 -30 -26 -30 -5 0 -4 6 2 14 12 15 9 15 -49 7 -2 -1 6 -8 18
-17 27 -18 20 -39 -8 -24 -29 15 -35 12 -16 -9 11 -12 14 -21 7 -26 -11 -6
-12 -5 -15 17 0 6 -6 13 -13 15 -15 5 -11 -20 7 -43 12 -16 12 -17 0 -6 -16
14 -34 16 -25 3 3 -5 -4 -12 -15 -16 -11 -4 -18 -11 -15 -16 3 -5 -1 -6 -9 -3
-9 3 -13 10 -10 15 3 5 -2 6 -10 3 -10 -4 -18 1 -22 11 -5 13 -9 14 -15 3 -8
-11 -10 -11 -18 1 -5 8 -11 9 -15 3 -3 -6 3 -14 15 -17 11 -4 18 -10 14 -13
-10 -10 -29 -9 -36 1 -4 5 -6 -3 -6 -18 0 -16 3 -22 7 -15 5 9 9 8 13 -2 7
-18 -25 -39 -43 -28 -21 13 -22 43 -2 35 13 -5 14 -4 5 6 -10 10 -15 9 -27 0
-9 -7 -15 -16 -14 -19 2 -20 -4 -25 -13 -12 -9 12 -10 11 -4 -5 4 -11 8 -24 9
-30 1 -5 5 -16 9 -22 5 -7 3 -21 -3 -30 -9 -15 -10 -14 -5 7 6 24 5 24 -9 6
-13 -16 -16 -17 -16 -4 0 18 -32 18 -38 0 -2 -8 3 -10 15 -6 14 5 15 4 4 -4
-8 -6 -21 -7 -30 -4 -14 5 -14 3 -3 -11 8 -8 19 -14 27 -11 17 7 29 -12 14
-22 -7 -4 -9 -3 -5 4 4 7 -2 10 -14 9 -13 -1 -19 -6 -15 -15 3 -7 0 -10 -6 -7
-5 4 -8 12 -6 18 2 7 -3 21 -12 31 -11 14 -12 17 -2 11 10 -6 12 -4 6 5 -6 9
-4 11 5 5 9 -6 11 -4 5 5 -6 9 -4 11 6 5 12 -8 12 -6 0 8 -9 12 -17 14 -26 7
-6 -5 -16 -6 -21 -2 -4 4 -3 0 4 -10 8 -10 9 -19 3 -22 -5 -3 -12 0 -14 6 -4
10 -8 10 -16 -2 -11 -16 -6 -30 12 -30 7 0 6 4 -3 11 -12 8 -11 9 5 7 27 -4
36 -18 25 -39 -5 -9 -6 -20 -2 -25 4 -5 0 -4 -7 3 -12 10 -12 15 -1 28 13 16
3 20 -18 6 -19 -12 -19 -15 -2 -36 12 -15 12 -17 1 -10 -11 6 -13 4 -8 -9 4
-10 3 -15 -3 -11 -5 3 -20 8 -32 10 -27 6 -44 22 -23 22 8 0 15 -4 15 -8 0 -4
7 -6 15 -5 21 3 28 12 10 14 -8 1 -22 3 -30 4 -10 1 -13 8 -10 19 7 20 -10 35
-21 18 -4 -8 -3 -9 4 -5 15 9 15 1 1 -26 -10 -18 -8 -25 10 -39 27 -22 27 -24
-6 -26 -23 -1 -24 0 -9 6 13 5 16 10 9 14 -6 4 -18 0 -27 -8 -8 -8 -19 -15
-23 -14 -22 4 -43 -2 -43 -12 0 -5 4 -8 8 -5 5 3 9 -1 9 -9 0 -18 -14 -20 -20
-2 -3 8 -11 6 -28 -9 -31 -27 -50 -38 -48 -27 7 43 -16 54 -38 18 -9 -16 -8
-21 5 -28 12 -5 11 -6 -6 -3 -15 3 -27 -3 -37 -17 -8 -12 -15 -16 -15 -10 0 6
7 16 15 23 8 7 15 17 15 23 0 5 -8 3 -18 -6 -10 -10 -21 -15 -23 -12 -3 2 -4
-10 -4 -28 2 -34 -10 -57 -29 -57 -6 0 -4 5 6 10 9 6 15 18 13 28 -2 9 -4 20
-4 24 -1 3 -9 5 -18 3 -10 -2 -22 -4 -26 -4 -5 -1 -6 -5 -3 -10 3 -4 -5 -13
-18 -19 -19 -9 -25 -8 -30 4 -8 21 -24 17 -57 -15 -31 -31 -41 -30 -12 1 9 10
12 18 6 18 -16 0 -43 -35 -35 -46 11 -16 118 -12 114 4 -1 8 2 11 8 7 6 -3 8
-10 5 -15 -3 -4 26 -7 63 -6 49 1 66 5 64 14 -1 8 2 11 8 7 6 -3 8 -10 5 -15
-4 -6 292 -10 730 -10 l736 0 -1 684 c-1 512 -5 686 -13 690 -9 3 -8 5 1 5 8
1 12 18 12 50 0 30 -5 51 -12 54 -10 4 -10 6 0 6 6 1 12 10 12 22 0 11 -4 18
-8 15 -5 -3 -9 1 -9 9 0 8 4 12 9 9 4 -3 8 2 8 11 0 9 -7 15 -16 13 -10 -2
-19 4 -21 12 -3 11 -2 11 4 3 5 -7 13 -9 18 -5 14 10 18 42 5 42 -5 0 -10 -4
-10 -10 0 -5 -5 -10 -11 -10 -8 0 -9 4 0 13 6 8 8 17 4 21 -4 4 0 4 10 0 9 -3
17 -2 17 4 0 6 -6 13 -12 15 -10 4 -10 6 0 6 14 1 17 21 3 21 -5 0 -13 -9 -16
-20z m-29 -89 c-3 -5 1 -12 10 -15 9 -4 14 -9 11 -13 -4 -3 -2 -13 3 -23 6
-12 5 -17 -5 -17 -7 0 -11 7 -8 14 3 8 0 13 -8 11 -7 -2 -12 6 -12 20 1 29 2
32 9 32 3 0 3 -4 0 -9z m-46 -96 c0 -18 -27 -26 -39 -11 -7 9 -7 16 0 23 14
14 39 6 39 -12z m-70 -205 c8 -16 8 -18 -5 -14 -8 3 -12 10 -9 15 3 5 2 9 -3
9 -4 0 -18 -16 -31 -36 -22 -33 -22 -35 -4 -30 13 5 22 1 26 -10 6 -15 4 -15
-11 -3 -15 12 -16 12 -10 -3 3 -10 2 -18 -3 -18 -6 0 -10 5 -10 11 0 5 -4 8
-9 4 -16 -10 -22 12 -6 25 11 9 12 17 5 31 -8 13 -6 20 5 26 27 15 55 12 65
-7z m-159 -210 c6 0 7 5 3 12 -5 7 -3 8 7 2 8 -5 18 -9 23 -9 5 0 11 -6 14
-12 5 -16 -10 -17 -26 -1 -16 16 -16 -4 1 -21 10 -11 10 -13 0 -7 -8 4 -13 2
-13 -6 0 -10 -3 -9 -9 2 -6 8 -7 19 -4 25 4 5 2 6 -3 2 -15 -14 -12 -58 3 -53
7 3 13 1 13 -4 0 -17 -29 -11 -37 8 -10 20 -9 40 2 66 5 12 10 15 13 8 2 -7 8
-12 13 -12z m-41 -110 c0 -6 -5 -10 -11 -10 -5 0 -7 5 -4 10 9 15 -4 12 -22
-5 -8 -8 -18 -13 -23 -10 -5 3 -8 -4 -7 -15 2 -24 4 -24 23 -5 9 8 20 15 25
15 5 0 -5 -14 -23 -31 -32 -29 -32 -30 -8 -24 24 6 24 5 -3 -10 -33 -19 -50
-11 -41 17 5 16 3 19 -7 12 -12 -6 -12 -5 0 9 7 9 11 17 7 17 -3 0 8 13 26 29
25 22 37 27 50 20 10 -5 18 -14 18 -19z m-295 -280 c-22 -24 -27 -47 -14 -56
5 -3 9 -14 9 -26 0 -18 2 -19 18 -7 15 13 16 12 3 -3 -15 -21 -31 -15 -31 11
0 22 -23 44 -36 33 -4 -4 -2 2 6 13 15 20 52 54 59 55 2 0 -4 -9 -14 -20z
m-218 -245 c4 0 8 -8 8 -17 1 -9 -2 -15 -6 -12 -5 3 -14 -4 -21 -16 -7 -11
-21 -20 -31 -20 -10 0 -15 -4 -12 -10 3 -5 1 -10 -4 -10 -6 0 -11 4 -11 8 0 4
-9 8 -20 9 -11 1 -18 -2 -16 -6 3 -4 1 -13 -5 -21 -6 -10 -9 -11 -9 -2 0 6 1
14 3 15 1 2 -4 11 -10 19 -18 21 -4 30 20 13 17 -12 23 -12 43 2 20 13 22 18
12 37 -6 11 -7 18 -3 14 11 -11 36 12 29 26 -3 6 2 2 11 -9 9 -11 19 -20 22
-20z m133 -330 c-8 -9 -8 -15 -2 -15 6 0 14 5 17 10 4 6 11 8 16 4 5 -3 7 -10
3 -15 -3 -5 -10 -7 -15 -4 -5 4 -9 -1 -9 -9 0 -23 -13 -25 -35 -4 -20 19 -20
19 0 13 20 -7 20 -6 1 9 -19 15 -12 22 17 17 4 0 7 4 7 11 0 6 3 8 6 5 4 -4 1
-13 -6 -22z"/>
<path d="M3683 417 c-3 -6 -1 -13 6 -15 8 -3 6 -8 -6 -18 -10 -7 -13 -14 -7
-14 10 0 34 23 47 45 8 15 -31 17 -40 2z"/>
<path d="M46 1623 c-4 -9 0 -22 9 -30 8 -7 13 -10 10 -7 -3 4 0 13 5 19 7 9 6
16 -4 24 -11 9 -15 8 -20 -6z"/>
<path d="M4424 1433 c1 -12 5 -26 9 -29 14 -14 7 -26 -8 -14 -10 9 -15 9 -15
1 0 -6 5 -11 11 -11 5 0 7 -5 4 -10 -4 -6 -10 -8 -15 -5 -5 3 -12 0 -16 -6 -4
-7 -3 -9 4 -5 6 3 13 2 17 -4 3 -5 -2 -10 -12 -11 -13 0 -14 -2 -4 -6 10 -4 8
-9 -10 -19 -13 -7 -18 -13 -11 -14 6 0 22 10 34 22 13 13 27 23 33 24 24 3 25
5 15 25 -7 12 -8 25 -3 32 8 11 9 20 4 43 0 4 -7 1 -15 -5 -11 -9 -15 -9 -19
1 -3 7 -5 3 -3 -9z"/>
<path d="M146 1423 c-3 -7 4 -17 15 -23 11 -6 17 -15 14 -20 -3 -5 -1 -11 5
-15 15 -10 12 -22 -12 -45 -27 -25 -15 -27 16 -2 13 9 20 24 18 32 -5 13 -3
13 13 0 17 -14 17 -14 4 8 -8 12 -18 22 -23 22 -4 0 -3 7 4 16 11 12 11 15 -1
12 -8 -2 -13 4 -11 14 3 20 -35 21 -42 1z"/>
<path d="M4340 1155 c-7 -8 -9 -15 -4 -15 5 0 0 -7 -10 -15 -11 -8 -16 -18
-12 -22 4 -4 12 -1 17 7 8 12 12 12 16 2 4 -10 9 -10 23 3 16 14 17 21 7 36
-14 23 -21 24 -37 4z"/>
<path d="M371 1000 l-21 -29 23 -7 c25 -8 33 -6 30 7 -2 5 3 9 10 9 6 0 4 5
-5 11 -10 5 -18 15 -18 21 0 7 5 6 15 -2 9 -7 15 -8 15 -2 0 23 -29 18 -49 -8z"/>
<path d="M590 783 c8 -18 7 -24 -9 -32 -10 -6 -22 -7 -26 -3 -4 4 -2 -3 6 -15
7 -12 17 -19 21 -17 5 3 6 9 3 14 -3 4 2 13 10 20 10 9 15 9 15 1 0 -6 -4 -11
-8 -11 -20 0 -6 -34 31 -76 l39 -44 19 24 c10 13 19 28 19 33 0 4 -5 1 -10 -7
-8 -12 -10 -12 -10 -1 0 10 -8 12 -30 7 -25 -5 -28 -3 -18 8 7 8 16 12 20 10
3 -2 3 6 0 18 -5 18 -7 19 -10 6 -4 -19 -29 -31 -37 -17 -4 5 -1 8 5 7 7 -2
14 5 15 15 3 15 1 16 -11 6 -17 -14 -18 -5 -4 22 7 12 7 18 1 17 -5 -2 -17 6
-26 17 -16 20 -16 20 -5 -2z"/>
<path d="M3843 619 c3 -9 1 -22 -4 -30 -6 -10 -9 -11 -9 -1 0 10 -3 10 -14 0
-8 -7 -12 -21 -10 -31 2 -13 -2 -16 -22 -13 -16 3 -22 1 -18 -6 5 -8 1 -9 -12
-5 -18 7 -18 6 -1 -7 18 -14 18 -14 -2 -21 -17 -5 -19 -9 -8 -26 6 -10 15 -19
19 -19 7 0 23 41 20 52 -4 16 38 29 61 18 21 -11 21 -10 3 4 -11 9 -24 16 -30
16 -5 0 -1 6 9 14 11 7 32 13 47 12 15 -1 30 4 32 11 5 12 1 14 -32 17 -7 1
-18 8 -23 16 -9 13 -10 13 -6 -1z"/>
<path d="M3526 364 c-5 -14 -9 -14 -23 -3 -15 13 -15 12 -4 -6 8 -13 24 -21
44 -21 18 -1 26 1 20 3 -7 3 -13 9 -13 14 0 6 6 7 13 3 8 -5 8 -2 -2 9 -17 21
-27 22 -35 1z"/>
<path d="M1171 296 c-24 -26 -13 -46 12 -22 8 8 17 12 21 9 3 -4 6 -1 6 5 0 7
-5 12 -11 12 -5 0 -7 5 -4 10 11 18 -1 11 -24 -14z"/>
<path d="M3389 277 c9 -25 38 -35 38 -13 0 8 -11 19 -23 25 -21 9 -22 8 -15
-12z"/>
<path d="M3273 224 c-2 -6 -12 -11 -21 -10 -23 4 -41 -23 -36 -54 3 -18 2 -21
-5 -11 -5 8 -8 24 -7 36 2 12 -3 22 -10 22 -7 0 -10 -7 -6 -16 5 -14 4 -14
-13 -1 -10 8 -16 10 -12 4 4 -7 0 -17 -8 -24 -12 -10 -18 -10 -30 0 -11 9 -15
9 -15 1 0 -7 -4 -9 -10 -6 -6 4 -7 -1 -3 -11 5 -13 3 -15 -7 -9 -8 5 -11 4 -6
-3 7 -12 -32 -11 -54 3 -8 4 -12 5 -8 1 4 -5 1 -14 -5 -21 -10 -11 -15 -10
-29 2 -10 9 -18 12 -18 7 0 -5 9 -15 21 -22 31 -20 16 -26 -19 -8 -30 15 -31
15 -27 -4 3 -15 -1 -20 -13 -18 -9 2 -20 8 -25 13 -4 6 -10 1 -13 -12 -7 -25
-30 -37 -40 -21 -4 6 -3 8 4 4 6 -3 13 -2 16 3 11 17 -12 22 -28 5 -9 -9 -16
-11 -16 -4 0 6 -4 8 -10 5 -5 -3 -10 -2 -10 3 0 5 -7 9 -14 9 -8 0 -14 -5 -13
-11 1 -6 -9 -12 -22 -14 -17 -3 -21 0 -15 10 6 10 4 10 -9 -1 -9 -7 -17 -10
-17 -6 0 4 -7 1 -17 -6 -19 -16 -22 -16 -35 3 -8 10 -9 9 -5 -3 8 -24 -6 -40
-23 -29 -10 7 -11 10 -2 10 22 0 13 16 -10 17 -13 1 -18 -1 -13 -5 14 -10 17
-32 5 -33 -5 -1 -14 -2 -19 -3 -5 0 -12 -3 -15 -6 -2 -3 29 -6 70 -6 41 -1 74
3 74 8 0 4 5 8 11 8 5 0 7 -5 4 -10 -3 -6 4 -10 16 -10 17 0 20 3 12 11 -14
14 -65 21 -58 8 4 -5 -1 -6 -9 -3 -23 9 -19 24 4 19 11 -2 19 -1 16 3 -2 4 17
7 44 7 27 0 46 3 43 8 -8 14 31 3 43 -12 9 -11 14 -9 31 13 13 16 24 22 28 16
4 -7 13 -7 27 1 14 8 23 8 31 0 17 -17 35 -13 42 8 4 13 14 18 34 16 23 -2 28
1 23 13 -4 11 -1 14 11 9 8 -3 21 1 27 8 7 8 16 12 21 10 4 -3 12 2 17 12 14
24 43 25 49 2 7 -25 9 -25 55 17 22 19 45 33 52 31 6 -3 20 1 31 9 18 13 17
14 -9 14 -15 0 -25 4 -22 8 3 5 -2 9 -10 9 -9 0 -18 -6 -21 -13z m-5 -34 c-22
-19 -35 -24 -40 -17 -11 18 10 32 55 36 5 1 5 6 1 13 -5 7 -3 8 5 3 9 -5 3
-15 -21 -35z"/>
<path d="M1865 50 c2 -19 0 -37 -5 -40 -5 -3 45 -6 111 -6 65 0 119 4 119 9 0
4 6 5 13 0 20 -12 47 -14 47 -2 0 8 5 8 15 -1 11 -9 18 -10 28 -1 8 6 17 8 21
4 9 -10 86 -11 86 -1 0 4 -6 8 -14 8 -8 0 -16 3 -19 8 -2 4 -2 1 -1 -5 4 -15
-12 -17 -21 -3 -3 5 -13 6 -23 3 -15 -6 -16 -5 -2 13 14 18 14 18 -5 3 -24
-19 -72 -19 -84 -1 -6 11 -10 10 -15 -5 -7 -17 -8 -17 -23 2 -11 15 -14 15
-10 3 6 -16 -20 -35 -31 -23 -3 3 -1 5 5 5 5 0 10 7 10 15 0 8 -4 15 -9 15 -4
0 -8 -7 -8 -16 0 -8 -5 -12 -11 -9 -6 4 -8 13 -5 21 4 11 2 12 -14 4 -10 -5
-22 -15 -25 -20 -3 -6 -11 -10 -17 -10 -6 0 -5 7 3 18 7 9 10 14 5 10 -5 -4
-17 -3 -28 3 -15 8 -23 6 -37 -12 -15 -18 -21 -20 -37 -10 -18 11 -18 11 0 9
10 -2 21 4 23 12 4 13 3 13 -6 0 -8 -11 -11 -12 -11 -2 0 7 -4 11 -9 7 -5 -3
-12 3 -15 12 -2 10 -3 2 -1 -17z m102 -24 c0 -7 -9 -12 -21 -11 -30 3 -30 3
-16 19 13 17 37 12 37 -8z"/>
<path d="M2531 53 c3 -20 -2 -30 -16 -30 -8 0 -15 5 -15 10 0 5 -6 7 -14 4 -7
-3 -19 0 -25 6 -7 7 -11 8 -9 2 2 -5 -1 -11 -6 -12 -5 -1 -13 -7 -17 -15 -6
-8 -12 -9 -16 -3 -10 13 -33 13 -33 0 0 -15 182 -13 198 2 8 7 18 11 23 8 5
-4 9 -2 9 4 0 5 -6 11 -12 14 -19 6 -50 -12 -42 -25 5 -7 2 -8 -5 -4 -7 5 -10
14 -7 22 3 7 1 16 -5 19 -5 4 -9 3 -8 -2z"/>
<path d="M2770 27 c0 -4 8 -6 19 -2 10 3 24 -1 31 -10 13 -16 50 -21 50 -6 0
17 -26 29 -62 28 -21 -1 -38 -5 -38 -10z"/>
</g>
</svg>
